<svg width="128" height="128" xmlns="http://www.w3.org/2000/svg">
 <g>
  <path id="svg_1" d="m64,0c-35.3,0 -64,28.7 -64,64s28.7,64 64,64c11.2,0 21.7,-2.9 30.8,-7.9l-46.4,-64.8l0,36.6l-6.8,0l0,-50.1l6.8,0l50.5,75.8c17.5,-11.4 29.1,-31.1 29.1,-53.6c0,-35.3 -28.7,-64 -64,-64zm22.1,84.6l-7.5,-11.3l0,-31.5l7.5,0l0,42.8z"/>
  <g>
   <path d="m64,0c-35.3,0 -64,28.7 -64,64s28.7,64 64,64s64,-28.7 64,-64s-28.7,-64 -64,-64zm32.7,114.4l-48.3,-72.6l-6.8,0l0,50.1l6.8,0l0,-36.6l44.2,61.5c-8.5,4.6 -18.2,7.2 -28.6,7.2c-33.2,0.1 -60.1,-26.8 -60.1,-60s26.9,-60.1 60.1,-60.1s60.1,26.9 60.1,60.1c0,21.1 -10.9,39.7 -27.4,50.4z" fill="#ffffff"/>
   <path d="m78.6,73.3l7.5,11.3l0,-42.8l-7.5,0l0,31.5z" fill="#ffffff"/>
  </g>
 </g>
</svg>
