<?xml version="1.0" encoding="UTF-8"?>
<svg xmlns="http://www.w3.org/2000/svg" xmlns:xlink="http://www.w3.org/1999/xlink" width="500pt" height="300pt" viewBox="0 0 500 300" version="1.1">
<g id="surface13">
<rect x="0" y="0" width="500" height="300" style="fill:rgb(0%,0%,0%);fill-opacity:1;stroke:none;"/>
<path style="fill:none;stroke-width:2;stroke-linecap:butt;stroke-linejoin:miter;stroke:rgb(100%,100%,100%);stroke-opacity:1;stroke-miterlimit:10;" d="M 0 150 L 500 150 "/>
<path style="fill:none;stroke-width:1;stroke-linecap:butt;stroke-linejoin:miter;stroke:rgb(100%,100%,100%);stroke-opacity:1;stroke-miterlimit:10;" d="M 450 150 C 450 94.773438 360.457031 50 250 50 C 139.542969 50 50 94.773438 50 150 "/>
<path style="fill:none;stroke-width:1;stroke-linecap:butt;stroke-linejoin:miter;stroke:rgb(100%,100%,100%);stroke-opacity:1;stroke-dasharray:5,5;stroke-miterlimit:10;" d="M 50 150 C 50 205.226562 139.542969 250 250 250 C 360.457031 250 450 205.226562 450 150 "/>
<path style="fill:none;stroke-width:2;stroke-linecap:butt;stroke-linejoin:miter;stroke:rgb(100%,100%,100%);stroke-opacity:1;stroke-miterlimit:10;" d="M 83.648438 197.167969 C 83.648438 202.691406 79.171875 207.167969 73.648438 207.167969 C 68.125 207.167969 63.648438 202.691406 63.648438 197.167969 C 63.648438 191.648438 68.125 187.167969 73.648438 187.167969 C 79.171875 187.167969 83.648438 191.648438 83.648438 197.167969 "/>
<path style="fill:none;stroke-width:1;stroke-linecap:butt;stroke-linejoin:miter;stroke:rgb(100%,100%,100%);stroke-opacity:1;stroke-miterlimit:10;" d="M 250 150 L 73.648438 197.167969 "/>
<path style=" stroke:none;fill-rule:nonzero;fill:rgb(100%,100%,100%);fill-opacity:1;" d="M 13.609375 74.546875 C 13.609375 74.289062 13.691406 74.070312 13.859375 73.890625 C 14.035156 73.714844 14.253906 73.625 14.515625 73.625 C 14.773438 73.625 14.988281 73.714844 15.15625 73.890625 C 15.332031 74.070312 15.421875 74.289062 15.421875 74.546875 C 15.421875 74.796875 15.332031 75.011719 15.15625 75.1875 C 14.988281 75.367188 14.773438 75.453125 14.515625 75.453125 C 14.253906 75.453125 14.035156 75.371094 13.859375 75.203125 C 13.691406 75.027344 13.609375 74.808594 13.609375 74.546875 Z M 14.515625 70.703125 C 14.015625 70.703125 13.648438 71.011719 13.421875 71.625 C 13.191406 72.230469 13.078125 73.203125 13.078125 74.546875 C 13.078125 75.882812 13.191406 76.855469 13.421875 77.46875 C 13.648438 78.074219 14.015625 78.375 14.515625 78.375 C 15.015625 78.375 15.378906 78.074219 15.609375 77.46875 C 15.835938 76.855469 15.953125 75.882812 15.953125 74.546875 C 15.953125 73.203125 15.835938 72.230469 15.609375 71.625 C 15.378906 71.011719 15.015625 70.703125 14.515625 70.703125 Z M 10.90625 74.546875 C 10.90625 72.652344 11.203125 71.230469 11.796875 70.28125 C 12.398438 69.335938 13.304688 68.859375 14.515625 68.859375 C 15.722656 68.859375 16.625 69.335938 17.21875 70.28125 C 17.820312 71.21875 18.125 72.640625 18.125 74.546875 C 18.125 76.445312 17.820312 77.867188 17.21875 78.8125 C 16.625 79.75 15.722656 80.21875 14.515625 80.21875 C 13.304688 80.21875 12.398438 79.746094 11.796875 78.796875 C 11.203125 77.851562 10.90625 76.433594 10.90625 74.546875 Z M 20.015625 69.0625 L 26.9375 69.0625 L 26.9375 70.59375 L 23.234375 80 L 21.03125 80 L 24.578125 70.96875 L 20.015625 70.96875 Z M 31.34375 72.21875 L 33.796875 72.21875 L 33.796875 74.890625 L 31.34375 74.890625 Z M 31.34375 77.3125 L 33.796875 77.3125 L 33.796875 80 L 31.34375 80 Z M 41.105469 75.109375 L 39.949219 75.109375 L 39.949219 73.203125 L 41.105469 73.203125 C 41.644531 73.203125 42.0625 73.101562 42.355469 72.890625 C 42.65625 72.671875 42.808594 72.371094 42.808594 71.984375 C 42.808594 71.578125 42.65625 71.265625 42.355469 71.046875 C 42.0625 70.820312 41.644531 70.703125 41.105469 70.703125 C 40.699219 70.703125 40.261719 70.757812 39.792969 70.859375 C 39.324219 70.953125 38.839844 71.101562 38.339844 71.296875 L 38.339844 69.328125 C 38.839844 69.183594 39.332031 69.070312 39.824219 68.984375 C 40.3125 68.902344 40.78125 68.859375 41.230469 68.859375 C 42.375 68.859375 43.269531 69.117188 43.917969 69.625 C 44.5625 70.125 44.886719 70.820312 44.886719 71.703125 C 44.886719 72.351562 44.699219 72.882812 44.324219 73.296875 C 43.957031 73.703125 43.433594 73.976562 42.746094 74.109375 C 43.527344 74.246094 44.121094 74.558594 44.527344 75.046875 C 44.941406 75.527344 45.152344 76.164062 45.152344 76.953125 C 45.152344 78.015625 44.808594 78.828125 44.121094 79.390625 C 43.441406 79.945312 42.457031 80.21875 41.167969 80.21875 C 40.613281 80.21875 40.066406 80.171875 39.527344 80.078125 C 38.996094 79.984375 38.488281 79.851562 38.011719 79.671875 L 38.011719 77.65625 C 38.46875 77.886719 38.964844 78.0625 39.496094 78.1875 C 40.027344 78.304688 40.582031 78.359375 41.167969 78.359375 C 41.75 78.359375 42.214844 78.226562 42.558594 77.953125 C 42.902344 77.683594 43.074219 77.320312 43.074219 76.859375 C 43.074219 76.296875 42.902344 75.867188 42.558594 75.5625 C 42.214844 75.261719 41.730469 75.109375 41.105469 75.109375 Z M 47.496094 78.09375 L 49.917969 78.09375 L 49.917969 71 L 47.667969 71.5625 L 47.667969 69.609375 L 49.933594 69.0625 L 52.011719 69.0625 L 52.011719 78.09375 L 54.433594 78.09375 L 54.433594 80 L 47.496094 80 Z M 68.695312 71.046875 L 67.679688 75.515625 L 69.710938 75.515625 Z M 67.367188 69.0625 L 70.023438 69.0625 L 72.976562 80 L 70.804688 80 L 70.132812 77.296875 L 67.242188 77.296875 L 66.585938 80 L 64.414062 80 Z M 73.835938 69.0625 L 76.414062 69.0625 L 77.726562 73.859375 L 79.023438 69.0625 L 81.617188 69.0625 L 81.617188 80 L 79.757812 80 L 79.757812 71.234375 L 78.601562 76.015625 L 76.867188 76.015625 L 75.695312 71.234375 L 75.695312 80 L 73.835938 80 Z M 10 66.078125 "/>
<path style=" stroke:none;fill-rule:nonzero;fill:rgb(100%,100%,100%);fill-opacity:1;" d="M 421.367188 74.546875 C 421.367188 74.289062 421.449219 74.070312 421.617188 73.890625 C 421.792969 73.714844 422.011719 73.625 422.273438 73.625 C 422.53125 73.625 422.746094 73.714844 422.914062 73.890625 C 423.089844 74.070312 423.179688 74.289062 423.179688 74.546875 C 423.179688 74.796875 423.089844 75.011719 422.914062 75.1875 C 422.746094 75.367188 422.53125 75.453125 422.273438 75.453125 C 422.011719 75.453125 421.792969 75.371094 421.617188 75.203125 C 421.449219 75.027344 421.367188 74.808594 421.367188 74.546875 Z M 422.273438 70.703125 C 421.773438 70.703125 421.40625 71.011719 421.179688 71.625 C 420.949219 72.230469 420.835938 73.203125 420.835938 74.546875 C 420.835938 75.882812 420.949219 76.855469 421.179688 77.46875 C 421.40625 78.074219 421.773438 78.375 422.273438 78.375 C 422.773438 78.375 423.136719 78.074219 423.367188 77.46875 C 423.59375 76.855469 423.710938 75.882812 423.710938 74.546875 C 423.710938 73.203125 423.59375 72.230469 423.367188 71.625 C 423.136719 71.011719 422.773438 70.703125 422.273438 70.703125 Z M 418.664062 74.546875 C 418.664062 72.652344 418.960938 71.230469 419.554688 70.28125 C 420.15625 69.335938 421.0625 68.859375 422.273438 68.859375 C 423.480469 68.859375 424.382812 69.335938 424.976562 70.28125 C 425.578125 71.21875 425.882812 72.640625 425.882812 74.546875 C 425.882812 76.445312 425.578125 77.867188 424.976562 78.8125 C 424.382812 79.75 423.480469 80.21875 422.273438 80.21875 C 421.0625 80.21875 420.15625 79.746094 419.554688 78.796875 C 418.960938 77.851562 418.664062 76.433594 418.664062 74.546875 Z M 428.273438 79.859375 L 428.273438 77.890625 C 428.65625 78.109375 429.027344 78.277344 429.382812 78.390625 C 429.734375 78.496094 430.078125 78.546875 430.414062 78.546875 C 431.183594 78.546875 431.773438 78.289062 432.179688 77.765625 C 432.585938 77.246094 432.804688 76.464844 432.835938 75.421875 C 432.605469 75.746094 432.308594 75.984375 431.945312 76.140625 C 431.589844 76.296875 431.167969 76.375 430.679688 76.375 C 429.699219 76.375 428.9375 76.070312 428.398438 75.453125 C 427.867188 74.828125 427.601562 73.945312 427.601562 72.796875 C 427.601562 71.578125 427.898438 70.636719 428.492188 69.96875 C 429.09375 69.304688 429.949219 68.96875 431.054688 68.96875 C 432.386719 68.96875 433.355469 69.417969 433.960938 70.3125 C 434.5625 71.199219 434.867188 72.632812 434.867188 74.609375 C 434.867188 76.507812 434.496094 77.929688 433.757812 78.875 C 433.015625 79.8125 431.90625 80.28125 430.429688 80.28125 C 430.09375 80.28125 429.746094 80.242188 429.382812 80.171875 C 429.015625 80.097656 428.648438 79.996094 428.273438 79.859375 Z M 431.117188 74.578125 C 431.574219 74.578125 431.921875 74.40625 432.164062 74.0625 C 432.414062 73.71875 432.539062 73.230469 432.539062 72.59375 C 432.539062 71.949219 432.414062 71.460938 432.164062 71.125 C 431.921875 70.78125 431.574219 70.609375 431.117188 70.609375 C 430.648438 70.609375 430.28125 70.78125 430.023438 71.125 C 429.773438 71.460938 429.648438 71.949219 429.648438 72.59375 C 429.648438 73.230469 429.773438 73.71875 430.023438 74.0625 C 430.28125 74.40625 430.648438 74.578125 431.117188 74.578125 Z M 439.101562 72.21875 L 441.554688 72.21875 L 441.554688 74.890625 L 439.101562 74.890625 Z M 439.101562 77.3125 L 441.554688 77.3125 L 441.554688 80 L 439.101562 80 Z M 448.019531 78.09375 L 452.628906 78.09375 L 452.628906 80 L 445.691406 80 L 445.691406 78.15625 L 446.863281 76.90625 C 448.257812 75.429688 449.101562 74.515625 449.394531 74.171875 C 449.757812 73.757812 450.019531 73.386719 450.175781 73.0625 C 450.339844 72.742188 450.425781 72.417969 450.425781 72.09375 C 450.425781 71.605469 450.273438 71.230469 449.972656 70.96875 C 449.679688 70.699219 449.261719 70.5625 448.722656 70.5625 C 448.335938 70.5625 447.902344 70.640625 447.425781 70.796875 C 446.945312 70.953125 446.445312 71.179688 445.925781 71.46875 L 445.925781 69.453125 C 446.445312 69.265625 446.957031 69.121094 447.457031 69.015625 C 447.957031 68.914062 448.433594 68.859375 448.894531 68.859375 C 450.050781 68.859375 450.957031 69.132812 451.613281 69.671875 C 452.277344 70.214844 452.613281 70.953125 452.613281 71.890625 C 452.613281 72.320312 452.539062 72.71875 452.394531 73.09375 C 452.257812 73.46875 452.011719 73.886719 451.660156 74.34375 C 451.398438 74.679688 450.691406 75.429688 449.535156 76.59375 C 448.898438 77.21875 448.394531 77.71875 448.019531 78.09375 Z M 455.363281 79.859375 L 455.363281 77.890625 C 455.746094 78.109375 456.117188 78.277344 456.472656 78.390625 C 456.824219 78.496094 457.167969 78.546875 457.503906 78.546875 C 458.273438 78.546875 458.863281 78.289062 459.269531 77.765625 C 459.675781 77.246094 459.894531 76.464844 459.925781 75.421875 C 459.695312 75.746094 459.398438 75.984375 459.035156 76.140625 C 458.679688 76.296875 458.257812 76.375 457.769531 76.375 C 456.789062 76.375 456.027344 76.070312 455.488281 75.453125 C 454.957031 74.828125 454.691406 73.945312 454.691406 72.796875 C 454.691406 71.578125 454.988281 70.636719 455.582031 69.96875 C 456.183594 69.304688 457.039062 68.96875 458.144531 68.96875 C 459.476562 68.96875 460.445312 69.417969 461.050781 70.3125 C 461.652344 71.199219 461.957031 72.632812 461.957031 74.609375 C 461.957031 76.507812 461.585938 77.929688 460.847656 78.875 C 460.105469 79.8125 458.996094 80.28125 457.519531 80.28125 C 457.183594 80.28125 456.835938 80.242188 456.472656 80.171875 C 456.105469 80.097656 455.738281 79.996094 455.363281 79.859375 Z M 458.207031 74.578125 C 458.664062 74.578125 459.011719 74.40625 459.253906 74.0625 C 459.503906 73.71875 459.628906 73.230469 459.628906 72.59375 C 459.628906 71.949219 459.503906 71.460938 459.253906 71.125 C 459.011719 70.78125 458.664062 70.609375 458.207031 70.609375 C 457.738281 70.609375 457.371094 70.78125 457.113281 71.125 C 456.863281 71.460938 456.738281 71.949219 456.738281 72.59375 C 456.738281 73.230469 456.863281 73.71875 457.113281 74.0625 C 457.371094 74.40625 457.738281 74.578125 458.207031 74.578125 Z M 475.28125 70.875 L 475.28125 74.09375 L 476.171875 74.09375 C 476.878906 74.09375 477.375 73.976562 477.65625 73.734375 C 477.945312 73.496094 478.09375 73.078125 478.09375 72.484375 C 478.09375 71.890625 477.945312 71.476562 477.65625 71.234375 C 477.375 70.996094 476.878906 70.875 476.171875 70.875 Z M 473.125 69.0625 L 476.09375 69.0625 C 477.601562 69.0625 478.6875 69.335938 479.34375 69.875 C 480.007812 70.40625 480.34375 71.277344 480.34375 72.484375 C 480.34375 73.695312 480.007812 74.570312 479.34375 75.109375 C 478.6875 75.640625 477.601562 75.90625 476.09375 75.90625 L 475.28125 75.90625 L 475.28125 80 L 473.125 80 Z M 481.59375 69.0625 L 484.171875 69.0625 L 485.484375 73.859375 L 486.78125 69.0625 L 489.375 69.0625 L 489.375 80 L 487.515625 80 L 487.515625 71.234375 L 486.359375 76.015625 L 484.625 76.015625 L 483.453125 71.234375 L 483.453125 80 L 481.59375 80 Z M 417.757812 66.078125 "/>
</g>
</svg>
