<?xml version="1.0" encoding="UTF-8"?>
<svg xmlns="http://www.w3.org/2000/svg" xmlns:xlink="http://www.w3.org/1999/xlink" width="500" height="300" viewBox="0 0 500 300">
<rect x="-50" y="-30" width="600" height="360" fill="rgb(0%, 0%, 0%)" fill-opacity="1"/>
<path fill="none" stroke-width="2" stroke-linecap="butt" stroke-linejoin="miter" stroke="rgb(100%, 100%, 100%)" stroke-opacity="1" stroke-miterlimit="10" d="M 0 150 L 500 150 "/>
<path fill="none" stroke-width="1" stroke-linecap="butt" stroke-linejoin="miter" stroke="rgb(100%, 100%, 100%)" stroke-opacity="1" stroke-miterlimit="10" d="M 450 150 C 450 94.773438 360.457031 50 250 50 C 139.542969 50 50 94.773438 50 150 "/>
<path fill="none" stroke-width="1" stroke-linecap="butt" stroke-linejoin="miter" stroke="rgb(100%, 100%, 100%)" stroke-opacity="1" stroke-dasharray="5 5" stroke-miterlimit="10" d="M 50 150 C 50 205.226562 139.542969 250 250 250 C 360.457031 250 450 205.226562 450 150 "/>
<path fill-rule="nonzero" fill="rgb(100%, 100%, 0%)" fill-opacity="1" d="M 78.738281 107.738281 C 78.738281 113.261719 74.261719 117.738281 68.738281 117.738281 C 63.214844 117.738281 58.738281 113.261719 58.738281 107.738281 C 58.738281 102.214844 63.214844 97.738281 68.738281 97.738281 C 74.261719 97.738281 78.738281 102.214844 78.738281 107.738281 "/>
<path fill="none" stroke-width="1" stroke-linecap="butt" stroke-linejoin="miter" stroke="rgb(100%, 100%, 100%)" stroke-opacity="1" stroke-miterlimit="10" d="M 250 150 L 68.738281 107.738281 "/>
<path fill-rule="nonzero" fill="rgb(100%, 100%, 100%)" fill-opacity="1" d="M 17.777344 74.425781 L 17.777344 76.074219 C 17.773438 77.050781 17.492188 77.988281 16.929688 78.878906 C 16.363281 79.773438 15.558594 80.214844 14.511719 80.21875 C 13.902344 80.214844 13.390625 80.085938 12.976562 79.820312 C 12.558594 79.558594 12.160156 79.066406 11.789062 78.347656 C 11.414062 77.632812 11.230469 76.875 11.230469 76.074219 L 11.230469 74.425781 C 11.230469 73.457031 11.507812 72.523438 12.070312 71.625 C 12.628906 70.734375 13.4375 70.285156 14.488281 70.28125 C 15.089844 70.285156 15.597656 70.417969 16.015625 70.675781 C 16.433594 70.941406 16.832031 71.429688 17.210938 72.144531 C 17.585938 72.863281 17.773438 73.625 17.777344 74.425781 Z M 16.269531 74.425781 C 16.269531 73.613281 16.042969 72.898438 15.589844 72.289062 C 15.328125 71.953125 14.960938 71.785156 14.496094 71.78125 C 14.039062 71.785156 13.667969 71.972656 13.382812 72.339844 C 12.945312 72.902344 12.730469 73.597656 12.730469 74.425781 L 12.730469 76.074219 C 12.730469 76.894531 12.960938 77.609375 13.421875 78.210938 C 13.671875 78.554688 14.035156 78.722656 14.511719 78.71875 C 14.960938 78.722656 15.328125 78.535156 15.617188 78.160156 C 16.050781 77.601562 16.269531 76.90625 16.269531 76.074219 Z M 22.089844 74.875 C 22.449219 74.574219 22.792969 74.351562 23.121094 74.210938 C 23.445312 74.070312 23.796875 74 24.171875 74 C 24.957031 74 25.644531 74.3125 26.234375 74.9375 C 26.824219 75.5625 27.121094 76.347656 27.121094 77.289062 C 27.121094 78.167969 26.84375 78.875 26.296875 79.410156 C 25.746094 79.949219 25.003906 80.214844 24.0625 80.21875 C 23.273438 80.214844 22.625 80.035156 22.121094 79.671875 C 21.609375 79.304688 21.226562 78.742188 20.96875 77.980469 C 20.710938 77.21875 20.582031 76.367188 20.582031 75.429688 C 20.582031 74.308594 20.835938 73.375 21.351562 72.628906 C 21.859375 71.886719 22.464844 71.3125 23.160156 70.898438 C 23.851562 70.492188 24.582031 70.285156 25.359375 70.28125 C 25.964844 70.285156 26.4375 70.40625 26.777344 70.640625 C 26.996094 70.804688 27.109375 71.007812 27.109375 71.253906 C 27.109375 71.476562 27.035156 71.660156 26.886719 71.808594 C 26.738281 71.957031 26.5625 72.03125 26.359375 72.03125 C 26.242188 72.03125 26.074219 71.972656 25.855469 71.855469 C 25.722656 71.789062 25.59375 71.757812 25.476562 71.753906 C 24.992188 71.757812 24.496094 71.890625 23.988281 72.160156 C 23.472656 72.433594 23.03125 72.851562 22.65625 73.40625 C 22.394531 73.800781 22.203125 74.289062 22.089844 74.875 Z M 22.3125 77.195312 C 22.464844 77.785156 22.675781 78.1875 22.945312 78.398438 C 23.207031 78.617188 23.585938 78.722656 24.082031 78.71875 C 24.574219 78.722656 24.957031 78.59375 25.222656 78.332031 C 25.488281 78.074219 25.621094 77.722656 25.621094 77.273438 C 25.621094 76.773438 25.46875 76.351562 25.164062 76.011719 C 24.859375 75.675781 24.515625 75.507812 24.132812 75.503906 C 23.828125 75.507812 23.503906 75.65625 23.164062 75.953125 C 22.816406 76.253906 22.53125 76.667969 22.3125 77.195312 Z M 33.636719 74.351562 C 33.632812 74.636719 33.535156 74.875 33.335938 75.0625 C 33.132812 75.253906 32.855469 75.347656 32.507812 75.347656 C 32.152344 75.347656 31.875 75.253906 31.679688 75.0625 C 31.476562 74.875 31.378906 74.636719 31.378906 74.351562 C 31.378906 74.070312 31.476562 73.835938 31.679688 73.644531 C 31.875 73.453125 32.152344 73.355469 32.507812 73.355469 C 32.855469 73.355469 33.132812 73.453125 33.335938 73.644531 C 33.535156 73.835938 33.632812 74.070312 33.636719 74.351562 Z M 33.652344 79.265625 C 33.652344 79.554688 33.550781 79.792969 33.351562 79.980469 C 33.148438 80.171875 32.871094 80.261719 32.523438 80.265625 C 32.167969 80.261719 31.894531 80.171875 31.695312 79.980469 C 31.492188 79.792969 31.390625 79.554688 31.394531 79.265625 C 31.390625 78.988281 31.492188 78.75 31.695312 78.558594 C 31.894531 78.371094 32.167969 78.277344 32.523438 78.273438 C 32.871094 78.277344 33.148438 78.371094 33.351562 78.558594 C 33.550781 78.75 33.652344 78.988281 33.652344 79.265625 Z M 44.785156 74.425781 L 44.785156 76.074219 C 44.78125 77.050781 44.5 77.988281 43.9375 78.878906 C 43.371094 79.773438 42.566406 80.214844 41.519531 80.21875 C 40.910156 80.214844 40.398438 80.085938 39.984375 79.820312 C 39.566406 79.558594 39.167969 79.066406 38.796875 78.347656 C 38.421875 77.632812 38.238281 76.875 38.238281 76.074219 L 38.238281 74.425781 C 38.238281 73.457031 38.515625 72.523438 39.078125 71.625 C 39.636719 70.734375 40.445312 70.285156 41.496094 70.28125 C 42.097656 70.285156 42.605469 70.417969 43.023438 70.675781 C 43.441406 70.941406 43.839844 71.429688 44.21875 72.144531 C 44.59375 72.863281 44.78125 73.625 44.785156 74.425781 Z M 43.277344 74.425781 C 43.277344 73.613281 43.050781 72.898438 42.597656 72.289062 C 42.335938 71.953125 41.96875 71.785156 41.503906 71.78125 C 41.046875 71.785156 40.675781 71.972656 40.390625 72.339844 C 39.953125 72.902344 39.738281 73.597656 39.738281 74.425781 L 39.738281 76.074219 C 39.738281 76.894531 39.96875 77.609375 40.429688 78.210938 C 40.679688 78.554688 41.042969 78.722656 41.519531 78.71875 C 41.96875 78.722656 42.335938 78.535156 42.625 78.160156 C 43.058594 77.601562 43.277344 76.90625 43.277344 76.074219 Z M 53.785156 74.425781 L 53.785156 76.074219 C 53.78125 77.050781 53.5 77.988281 52.9375 78.878906 C 52.371094 79.773438 51.566406 80.214844 50.519531 80.21875 C 49.910156 80.214844 49.398438 80.085938 48.984375 79.820312 C 48.566406 79.558594 48.167969 79.066406 47.796875 78.347656 C 47.421875 77.632812 47.238281 76.875 47.238281 76.074219 L 47.238281 74.425781 C 47.238281 73.457031 47.515625 72.523438 48.078125 71.625 C 48.636719 70.734375 49.445312 70.285156 50.496094 70.28125 C 51.097656 70.285156 51.605469 70.417969 52.023438 70.675781 C 52.441406 70.941406 52.839844 71.429688 53.21875 72.144531 C 53.59375 72.863281 53.78125 73.625 53.785156 74.425781 Z M 52.277344 74.425781 C 52.277344 73.613281 52.050781 72.898438 51.597656 72.289062 C 51.335938 71.953125 50.96875 71.785156 50.503906 71.78125 C 50.046875 71.785156 49.675781 71.972656 49.390625 72.339844 C 48.953125 72.902344 48.738281 73.597656 48.738281 74.425781 L 48.738281 76.074219 C 48.738281 76.894531 48.96875 77.609375 49.429688 78.210938 C 49.679688 78.554688 50.042969 78.722656 50.519531 78.71875 C 50.96875 78.722656 51.335938 78.535156 51.625 78.160156 C 52.058594 77.601562 52.277344 76.90625 52.277344 76.074219 Z M 70.347656 77.582031 L 66.699219 77.582031 L 66.332031 78.5 L 66.699219 78.5 C 67.058594 78.5 67.316406 78.570312 67.472656 78.707031 C 67.625 78.847656 67.703125 79.03125 67.703125 79.253906 C 67.703125 79.476562 67.625 79.65625 67.472656 79.792969 C 67.316406 79.933594 67.058594 80 66.699219 80 L 64.679688 80 C 64.316406 80 64.058594 79.933594 63.90625 79.792969 C 63.753906 79.65625 63.679688 79.472656 63.675781 79.246094 C 63.679688 79.023438 63.757812 78.839844 63.917969 78.699219 C 64.078125 78.558594 64.34375 78.492188 64.714844 78.5 L 67.074219 72.625 L 66.089844 72.625 C 65.726562 72.628906 65.46875 72.558594 65.320312 72.417969 C 65.164062 72.277344 65.089844 72.097656 65.089844 71.871094 C 65.089844 71.648438 65.164062 71.464844 65.320312 71.324219 C 65.46875 71.1875 65.726562 71.117188 66.089844 71.117188 L 69.335938 71.125 L 72.324219 78.5 C 72.671875 78.5 72.902344 78.539062 73.019531 78.617188 C 73.238281 78.78125 73.351562 78.996094 73.355469 79.253906 C 73.351562 79.476562 73.277344 79.65625 73.128906 79.792969 C 72.976562 79.933594 72.71875 80 72.363281 80 L 70.339844 80 C 69.976562 80 69.71875 79.933594 69.566406 79.792969 C 69.410156 79.65625 69.332031 79.472656 69.335938 79.246094 C 69.332031 79.027344 69.410156 78.847656 69.566406 78.707031 C 69.71875 78.570312 69.976562 78.5 70.339844 78.5 L 70.707031 78.5 Z M 69.722656 76.082031 L 68.515625 73.109375 L 67.300781 76.082031 Z M 75.167969 74.023438 L 75.167969 78.5 L 75.710938 78.5 C 76.070312 78.5 76.328125 78.570312 76.484375 78.707031 C 76.636719 78.847656 76.710938 79.03125 76.714844 79.253906 C 76.710938 79.476562 76.636719 79.65625 76.484375 79.792969 C 76.328125 79.933594 76.070312 80 75.710938 80 L 73.742188 80 C 73.378906 80 73.121094 79.933594 72.96875 79.792969 C 72.816406 79.65625 72.742188 79.472656 72.738281 79.246094 C 72.742188 79.027344 72.816406 78.847656 72.964844 78.707031 C 73.117188 78.570312 73.347656 78.5 73.667969 78.5 L 73.667969 72.625 C 73.402344 72.601562 73.203125 72.519531 73.070312 72.382812 C 72.933594 72.25 72.871094 72.082031 72.867188 71.871094 C 72.871094 71.648438 72.945312 71.464844 73.097656 71.324219 C 73.253906 71.1875 73.511719 71.117188 73.871094 71.117188 L 75.519531 71.125 L 77.5625 75.640625 L 79.570312 71.117188 L 81.234375 71.125 C 81.589844 71.128906 81.847656 71.195312 82.003906 71.328125 C 82.160156 71.464844 82.238281 71.648438 82.238281 71.871094 C 82.238281 72.082031 82.167969 72.25 82.03125 72.382812 C 81.894531 72.519531 81.695312 72.601562 81.4375 72.625 L 81.4375 78.5 C 81.75 78.5 81.984375 78.570312 82.140625 78.710938 C 82.289062 78.851562 82.367188 79.035156 82.367188 79.253906 C 82.367188 79.476562 82.289062 79.65625 82.136719 79.792969 C 81.980469 79.933594 81.722656 80 81.367188 80 L 79.386719 80 C 79.027344 80 78.773438 79.933594 78.621094 79.792969 C 78.464844 79.65625 78.386719 79.472656 78.390625 79.246094 C 78.386719 79.027344 78.464844 78.847656 78.621094 78.707031 C 78.773438 78.570312 79.027344 78.5 79.386719 78.5 L 79.9375 78.5 L 79.9375 74.023438 L 78.214844 77.890625 L 76.914062 77.890625 Z M 10 67.511719 "/>
<path fill-rule="nonzero" fill="rgb(100%, 100%, 100%)" fill-opacity="1" d="M 423.25 70.28125 L 423.25 78.5 L 424.765625 78.5 C 425.125 78.5 425.382812 78.570312 425.539062 78.707031 C 425.6875 78.847656 425.765625 79.03125 425.769531 79.253906 C 425.765625 79.476562 425.6875 79.65625 425.539062 79.792969 C 425.382812 79.933594 425.125 80 424.765625 80 L 420.234375 80 C 419.871094 80 419.613281 79.933594 419.460938 79.792969 C 419.304688 79.65625 419.226562 79.472656 419.230469 79.246094 C 419.226562 79.027344 419.304688 78.847656 419.460938 78.707031 C 419.613281 78.570312 419.871094 78.5 420.234375 78.5 L 421.75 78.5 L 421.75 72.234375 L 420.410156 72.585938 C 420.191406 72.648438 420.027344 72.675781 419.925781 72.675781 C 419.730469 72.675781 419.566406 72.601562 419.429688 72.449219 C 419.289062 72.300781 419.21875 72.113281 419.222656 71.890625 C 419.21875 71.695312 419.269531 71.539062 419.375 71.421875 C 419.476562 71.304688 419.691406 71.203125 420.019531 71.117188 Z M 433.613281 75.203125 C 433.996094 75.503906 434.285156 75.84375 434.480469 76.21875 C 434.667969 76.601562 434.765625 77.015625 434.769531 77.464844 C 434.765625 77.96875 434.640625 78.433594 434.398438 78.855469 C 434.148438 79.28125 433.761719 79.613281 433.238281 79.855469 C 432.707031 80.097656 432.121094 80.214844 431.480469 80.21875 C 430.832031 80.214844 430.253906 80.097656 429.738281 79.855469 C 429.21875 79.613281 428.835938 79.277344 428.589844 78.851562 C 428.34375 78.425781 428.21875 77.964844 428.222656 77.464844 C 428.21875 77.015625 428.316406 76.601562 428.511719 76.21875 C 428.703125 75.84375 428.992188 75.503906 429.378906 75.203125 C 429.039062 74.894531 428.785156 74.5625 428.617188 74.207031 C 428.441406 73.859375 428.355469 73.488281 428.359375 73.09375 C 428.355469 72.332031 428.648438 71.671875 429.238281 71.113281 C 429.820312 70.5625 430.574219 70.285156 431.496094 70.28125 C 432.414062 70.285156 433.164062 70.5625 433.753906 71.113281 C 434.335938 71.671875 434.628906 72.332031 434.632812 73.09375 C 434.628906 73.492188 434.546875 73.867188 434.378906 74.214844 C 434.207031 74.570312 433.949219 74.898438 433.613281 75.203125 Z M 433.09375 73.121094 C 433.089844 72.753906 432.945312 72.441406 432.65625 72.175781 C 432.367188 71.917969 431.972656 71.785156 431.480469 71.78125 C 430.980469 71.785156 430.585938 71.917969 430.296875 72.175781 C 430.003906 72.441406 429.859375 72.753906 429.863281 73.121094 C 429.859375 73.5 430.003906 73.820312 430.296875 74.078125 C 430.585938 74.339844 430.980469 74.46875 431.480469 74.46875 C 431.972656 74.46875 432.367188 74.339844 432.65625 74.078125 C 432.945312 73.820312 433.089844 73.5 433.09375 73.121094 Z M 433.269531 77.539062 C 433.265625 77.144531 433.09375 76.789062 432.757812 76.464844 C 432.414062 76.148438 431.996094 75.988281 431.496094 75.984375 C 430.992188 75.988281 430.570312 76.148438 430.230469 76.464844 C 429.890625 76.789062 429.71875 77.152344 429.722656 77.554688 C 429.71875 77.871094 429.867188 78.140625 430.160156 78.371094 C 430.453125 78.605469 430.898438 78.722656 431.496094 78.71875 C 432.097656 78.722656 432.542969 78.605469 432.832031 78.371094 C 433.121094 78.140625 433.265625 77.863281 433.269531 77.539062 Z M 441.621094 74.351562 C 441.617188 74.636719 441.519531 74.875 441.320312 75.0625 C 441.117188 75.253906 440.839844 75.347656 440.492188 75.347656 C 440.136719 75.347656 439.859375 75.253906 439.664062 75.0625 C 439.460938 74.875 439.363281 74.636719 439.363281 74.351562 C 439.363281 74.070312 439.460938 73.835938 439.664062 73.644531 C 439.859375 73.453125 440.136719 73.355469 440.492188 73.355469 C 440.839844 73.355469 441.117188 73.453125 441.320312 73.644531 C 441.519531 73.835938 441.617188 74.070312 441.621094 74.351562 Z M 441.636719 79.265625 C 441.636719 79.554688 441.535156 79.792969 441.335938 79.980469 C 441.132812 80.171875 440.855469 80.261719 440.507812 80.265625 C 440.152344 80.261719 439.878906 80.171875 439.679688 79.980469 C 439.476562 79.792969 439.375 79.554688 439.378906 79.265625 C 439.375 78.988281 439.476562 78.75 439.679688 78.558594 C 439.878906 78.371094 440.152344 78.277344 440.507812 78.273438 C 440.855469 78.277344 441.132812 78.371094 441.335938 78.558594 C 441.535156 78.75 441.636719 78.988281 441.636719 79.265625 Z M 452.769531 74.425781 L 452.769531 76.074219 C 452.765625 77.050781 452.484375 77.988281 451.921875 78.878906 C 451.355469 79.773438 450.550781 80.214844 449.503906 80.21875 C 448.894531 80.214844 448.382812 80.085938 447.96875 79.820312 C 447.550781 79.558594 447.152344 79.066406 446.78125 78.347656 C 446.40625 77.632812 446.222656 76.875 446.222656 76.074219 L 446.222656 74.425781 C 446.222656 73.457031 446.5 72.523438 447.0625 71.625 C 447.621094 70.734375 448.429688 70.285156 449.480469 70.28125 C 450.082031 70.285156 450.589844 70.417969 451.007812 70.675781 C 451.425781 70.941406 451.824219 71.429688 452.203125 72.144531 C 452.578125 72.863281 452.765625 73.625 452.769531 74.425781 Z M 451.261719 74.425781 C 451.261719 73.613281 451.035156 72.898438 450.582031 72.289062 C 450.320312 71.953125 449.953125 71.785156 449.488281 71.78125 C 449.03125 71.785156 448.660156 71.972656 448.375 72.339844 C 447.9375 72.902344 447.722656 73.597656 447.722656 74.425781 L 447.722656 76.074219 C 447.722656 76.894531 447.953125 77.609375 448.414062 78.210938 C 448.664062 78.554688 449.027344 78.722656 449.503906 78.71875 C 449.953125 78.722656 450.320312 78.535156 450.609375 78.160156 C 451.042969 77.601562 451.261719 76.90625 451.261719 76.074219 Z M 461.769531 74.425781 L 461.769531 76.074219 C 461.765625 77.050781 461.484375 77.988281 460.921875 78.878906 C 460.355469 79.773438 459.550781 80.214844 458.503906 80.21875 C 457.894531 80.214844 457.382812 80.085938 456.96875 79.820312 C 456.550781 79.558594 456.152344 79.066406 455.78125 78.347656 C 455.40625 77.632812 455.222656 76.875 455.222656 76.074219 L 455.222656 74.425781 C 455.222656 73.457031 455.5 72.523438 456.0625 71.625 C 456.621094 70.734375 457.429688 70.285156 458.480469 70.28125 C 459.082031 70.285156 459.589844 70.417969 460.007812 70.675781 C 460.425781 70.941406 460.824219 71.429688 461.203125 72.144531 C 461.578125 72.863281 461.765625 73.625 461.769531 74.425781 Z M 460.261719 74.425781 C 460.261719 73.613281 460.035156 72.898438 459.582031 72.289062 C 459.320312 71.953125 458.953125 71.785156 458.488281 71.78125 C 458.03125 71.785156 457.660156 71.972656 457.375 72.339844 C 456.9375 72.902344 456.722656 73.597656 456.722656 74.425781 L 456.722656 76.074219 C 456.722656 76.894531 456.953125 77.609375 457.414062 78.210938 C 457.664062 78.554688 458.027344 78.722656 458.503906 78.71875 C 458.953125 78.722656 459.320312 78.535156 459.609375 78.160156 C 460.042969 77.601562 460.261719 76.90625 460.261719 76.074219 Z M 475.628906 76.953125 L 475.628906 78.5 L 477.144531 78.5 C 477.503906 78.5 477.761719 78.570312 477.917969 78.707031 C 478.070312 78.847656 478.148438 79.03125 478.148438 79.253906 C 478.148438 79.476562 478.070312 79.65625 477.917969 79.792969 C 477.761719 79.933594 477.503906 80 477.144531 80 L 473.894531 80 C 473.53125 80 473.273438 79.933594 473.121094 79.792969 C 472.964844 79.65625 472.886719 79.472656 472.890625 79.246094 C 472.886719 79.027344 472.964844 78.847656 473.125 78.707031 C 473.277344 78.570312 473.535156 78.5 473.894531 78.5 L 474.128906 78.5 L 474.128906 72.625 L 473.894531 72.625 C 473.53125 72.628906 473.273438 72.558594 473.121094 72.417969 C 472.964844 72.277344 472.886719 72.097656 472.890625 71.871094 C 472.886719 71.648438 472.964844 71.464844 473.121094 71.324219 C 473.273438 71.1875 473.53125 71.117188 473.894531 71.117188 L 477.351562 71.125 C 478.367188 71.128906 479.167969 71.40625 479.761719 71.957031 C 480.351562 72.511719 480.648438 73.1875 480.652344 73.980469 C 480.648438 74.425781 480.550781 74.839844 480.351562 75.226562 C 480.199219 75.519531 479.945312 75.808594 479.59375 76.09375 C 479.238281 76.378906 478.875 76.59375 478.507812 76.738281 C 478.136719 76.882812 477.652344 76.953125 477.050781 76.953125 Z M 475.628906 75.453125 L 477.019531 75.453125 C 477.671875 75.453125 478.191406 75.308594 478.578125 75.011719 C 478.957031 74.71875 479.148438 74.359375 479.152344 73.941406 C 479.148438 73.589844 478.996094 73.285156 478.6875 73.019531 C 478.375 72.761719 477.929688 72.628906 477.355469 72.625 L 475.628906 72.625 Z M 483.152344 74.023438 L 483.152344 78.5 L 483.695312 78.5 C 484.054688 78.5 484.3125 78.570312 484.46875 78.707031 C 484.621094 78.847656 484.695312 79.03125 484.699219 79.253906 C 484.695312 79.476562 484.621094 79.65625 484.46875 79.792969 C 484.3125 79.933594 484.054688 80 483.695312 80 L 481.726562 80 C 481.363281 80 481.105469 79.933594 480.953125 79.792969 C 480.800781 79.65625 480.726562 79.472656 480.722656 79.246094 C 480.726562 79.027344 480.800781 78.847656 480.949219 78.707031 C 481.101562 78.570312 481.332031 78.5 481.652344 78.5 L 481.652344 72.625 C 481.386719 72.601562 481.1875 72.519531 481.054688 72.382812 C 480.917969 72.25 480.855469 72.082031 480.851562 71.871094 C 480.855469 71.648438 480.929688 71.464844 481.082031 71.324219 C 481.238281 71.1875 481.496094 71.117188 481.855469 71.117188 L 483.503906 71.125 L 485.546875 75.640625 L 487.554688 71.117188 L 489.21875 71.125 C 489.574219 71.128906 489.832031 71.195312 489.988281 71.328125 C 490.144531 71.464844 490.222656 71.648438 490.222656 71.871094 C 490.222656 72.082031 490.152344 72.25 490.015625 72.382812 C 489.878906 72.519531 489.679688 72.601562 489.421875 72.625 L 489.421875 78.5 C 489.734375 78.5 489.96875 78.570312 490.125 78.710938 C 490.273438 78.851562 490.351562 79.035156 490.351562 79.253906 C 490.351562 79.476562 490.273438 79.65625 490.121094 79.792969 C 489.964844 79.933594 489.707031 80 489.351562 80 L 487.371094 80 C 487.011719 80 486.757812 79.933594 486.605469 79.792969 C 486.449219 79.65625 486.371094 79.472656 486.375 79.246094 C 486.371094 79.027344 486.449219 78.847656 486.605469 78.707031 C 486.757812 78.570312 487.011719 78.5 487.371094 78.5 L 487.921875 78.5 L 487.921875 74.023438 L 486.199219 77.890625 L 484.898438 77.890625 Z M 417.984375 67.511719 "/>
</svg>
