<?xml version="1.0" encoding="UTF-8"?>
<svg xmlns="http://www.w3.org/2000/svg" xmlns:xlink="http://www.w3.org/1999/xlink" width="500pt" height="300pt" viewBox="0 0 500 300" version="1.1">
<g id="surface13">
<rect x="0" y="0" width="500" height="300" style="fill:rgb(52.941176%,62.745098%,98.039216%);fill-opacity:1;stroke:none;"/>
<path style="fill:none;stroke-width:2;stroke-linecap:butt;stroke-linejoin:miter;stroke:rgb(100%,100%,100%);stroke-opacity:1;stroke-miterlimit:10;" d="M 0 150 L 500 150 "/>
<path style=" stroke:none;fill-rule:nonzero;fill:rgb(0%,0%,0%);fill-opacity:1;" d="M 0 150 L 500 150 L 500 300 L 0 300 Z M 0 150 "/>
<path style="fill:none;stroke-width:1;stroke-linecap:butt;stroke-linejoin:miter;stroke:rgb(100%,100%,0%);stroke-opacity:1;stroke-miterlimit:10;" d="M 50 150 C 50 96.550781 134.0625 52.550781 240.851562 50.105469 C 347.640625 47.660156 439.394531 87.636719 449.164062 140.863281 "/>
<path style="fill:none;stroke-width:1;stroke-linecap:butt;stroke-linejoin:miter;stroke:rgb(100%,100%,100%);stroke-opacity:1;stroke-dasharray:5,5;stroke-miterlimit:10;" d="M 449.164062 140.863281 C 454.15625 168.0625 436.675781 195.101562 400.785156 215.695312 C 364.898438 236.289062 313.722656 248.644531 259.148438 249.894531 C 204.574219 251.144531 151.355469 241.175781 111.851562 222.308594 C 72.347656 203.441406 50 177.316406 50 150 "/>
<path style=" stroke:none;fill-rule:nonzero;fill:rgb(100%,100%,0%);fill-opacity:1;" d="M 459.164062 140.863281 C 459.164062 146.386719 454.6875 150.863281 449.164062 150.863281 C 443.640625 150.863281 439.164062 146.386719 439.164062 140.863281 C 439.164062 135.339844 443.640625 130.863281 449.164062 130.863281 C 454.6875 130.863281 459.164062 135.339844 459.164062 140.863281 "/>
<path style="fill:none;stroke-width:2;stroke-linecap:butt;stroke-linejoin:miter;stroke:rgb(100%,100%,0%);stroke-opacity:1;stroke-miterlimit:10;" d="M 464.164062 140.863281 L 469.164062 140.863281 "/>
<path style="fill:none;stroke-width:2;stroke-linecap:butt;stroke-linejoin:miter;stroke:rgb(100%,100%,0%);stroke-opacity:1;stroke-miterlimit:10;" d="M 462.152344 148.363281 L 466.484375 150.863281 "/>
<path style="fill:none;stroke-width:2;stroke-linecap:butt;stroke-linejoin:miter;stroke:rgb(100%,100%,0%);stroke-opacity:1;stroke-miterlimit:10;" d="M 456.664062 153.851562 L 459.164062 158.183594 "/>
<path style="fill:none;stroke-width:2;stroke-linecap:butt;stroke-linejoin:miter;stroke:rgb(100%,100%,0%);stroke-opacity:1;stroke-miterlimit:10;" d="M 449.164062 155.863281 L 449.164062 160.863281 "/>
<path style="fill:none;stroke-width:2;stroke-linecap:butt;stroke-linejoin:miter;stroke:rgb(100%,100%,0%);stroke-opacity:1;stroke-miterlimit:10;" d="M 441.664062 153.851562 L 439.164062 158.183594 "/>
<path style="fill:none;stroke-width:2;stroke-linecap:butt;stroke-linejoin:miter;stroke:rgb(100%,100%,0%);stroke-opacity:1;stroke-miterlimit:10;" d="M 436.171875 148.363281 L 431.84375 150.863281 "/>
<path style="fill:none;stroke-width:2;stroke-linecap:butt;stroke-linejoin:miter;stroke:rgb(100%,100%,0%);stroke-opacity:1;stroke-miterlimit:10;" d="M 434.164062 140.863281 L 429.164062 140.863281 "/>
<path style="fill:none;stroke-width:2;stroke-linecap:butt;stroke-linejoin:miter;stroke:rgb(100%,100%,0%);stroke-opacity:1;stroke-miterlimit:10;" d="M 436.171875 133.363281 L 431.84375 130.863281 "/>
<path style="fill:none;stroke-width:2;stroke-linecap:butt;stroke-linejoin:miter;stroke:rgb(100%,100%,0%);stroke-opacity:1;stroke-miterlimit:10;" d="M 441.664062 127.871094 L 439.164062 123.542969 "/>
<path style="fill:none;stroke-width:2;stroke-linecap:butt;stroke-linejoin:miter;stroke:rgb(100%,100%,0%);stroke-opacity:1;stroke-miterlimit:10;" d="M 449.164062 125.863281 L 449.164062 120.863281 "/>
<path style="fill:none;stroke-width:2;stroke-linecap:butt;stroke-linejoin:miter;stroke:rgb(100%,100%,0%);stroke-opacity:1;stroke-miterlimit:10;" d="M 456.664062 127.871094 L 459.164062 123.542969 "/>
<path style="fill:none;stroke-width:2;stroke-linecap:butt;stroke-linejoin:miter;stroke:rgb(100%,100%,0%);stroke-opacity:1;stroke-miterlimit:10;" d="M 462.152344 133.363281 L 466.484375 130.863281 "/>
<path style=" stroke:none;fill-rule:nonzero;fill:rgb(0%,0%,0%);fill-opacity:1;" d="M 17.734375 69.84375 C 17.734375 70.824219 17.640625 71.652344 17.453125 72.328125 C 17.273438 73.007812 17.023438 73.554688 16.703125 73.96875 C 16.378906 74.386719 16 74.6875 15.5625 74.875 C 15.132812 75.050781 14.660156 75.140625 14.140625 75.140625 C 13.617188 75.140625 13.140625 75.050781 12.703125 74.875 C 12.273438 74.699219 11.90625 74.402344 11.59375 73.984375 C 11.28125 73.570312 11.035156 73.023438 10.859375 72.34375 C 10.679688 71.667969 10.59375 70.835938 10.59375 69.84375 C 10.59375 68.804688 10.675781 67.945312 10.84375 67.265625 C 11.019531 66.578125 11.265625 66.03125 11.578125 65.625 C 11.898438 65.21875 12.28125 64.9375 12.71875 64.78125 C 13.164062 64.617188 13.660156 64.53125 14.203125 64.53125 C 14.703125 64.53125 15.164062 64.617188 15.59375 64.78125 C 16.03125 64.9375 16.40625 65.21875 16.71875 65.625 C 17.03125 66.03125 17.273438 66.578125 17.453125 67.265625 C 17.640625 67.945312 17.734375 68.804688 17.734375 69.84375 Z M 15.65625 69.84375 C 15.65625 69.117188 15.628906 68.511719 15.578125 68.03125 C 15.523438 67.554688 15.441406 67.171875 15.328125 66.890625 C 15.210938 66.609375 15.054688 66.417969 14.859375 66.3125 C 14.671875 66.199219 14.445312 66.140625 14.1875 66.140625 C 13.894531 66.140625 13.648438 66.199219 13.453125 66.3125 C 13.265625 66.429688 13.109375 66.625 12.984375 66.90625 C 12.867188 67.1875 12.785156 67.570312 12.734375 68.046875 C 12.679688 68.527344 12.65625 69.125 12.65625 69.84375 C 12.65625 70.542969 12.679688 71.132812 12.734375 71.609375 C 12.785156 72.078125 12.867188 72.460938 12.984375 72.75 C 13.109375 73.03125 13.265625 73.234375 13.453125 73.359375 C 13.640625 73.476562 13.875 73.53125 14.15625 73.53125 C 14.425781 73.53125 14.65625 73.476562 14.84375 73.359375 C 15.03125 73.234375 15.1875 73.03125 15.3125 72.75 C 15.4375 72.460938 15.523438 72.078125 15.578125 71.609375 C 15.628906 71.132812 15.65625 70.542969 15.65625 69.84375 Z M 26.03125 66.3125 C 25.5625 67.042969 25.117188 67.757812 24.703125 68.453125 C 24.296875 69.140625 23.9375 69.835938 23.625 70.53125 C 23.320312 71.21875 23.082031 71.933594 22.90625 72.671875 C 22.726562 73.402344 22.640625 74.179688 22.640625 75 L 20.484375 75 C 20.484375 74.1875 20.578125 73.417969 20.765625 72.6875 C 20.960938 71.949219 21.226562 71.230469 21.5625 70.53125 C 21.894531 69.835938 22.28125 69.148438 22.71875 68.46875 C 23.164062 67.78125 23.628906 67.085938 24.109375 66.375 L 18.984375 66.375 L 18.984375 64.6875 L 26.03125 64.6875 Z M 28.121094 69.484375 L 28.121094 67.421875 L 30.230469 67.421875 L 30.230469 69.484375 Z M 28.121094 75 L 28.121094 72.9375 L 30.230469 72.9375 L 30.230469 75 Z M 39.476562 72.140625 C 39.476562 72.609375 39.398438 73.03125 39.242188 73.40625 C 39.09375 73.773438 38.867188 74.089844 38.554688 74.359375 C 38.25 74.621094 37.871094 74.824219 37.414062 74.96875 C 36.953125 75.101562 36.421875 75.171875 35.820312 75.171875 C 35.140625 75.171875 34.574219 75.085938 34.117188 74.921875 C 33.65625 74.746094 33.277344 74.515625 32.976562 74.234375 C 32.683594 73.953125 32.460938 73.636719 32.304688 73.28125 C 32.15625 72.929688 32.0625 72.5625 32.023438 72.1875 L 34.117188 72.015625 C 34.148438 72.234375 34.199219 72.4375 34.273438 72.625 C 34.355469 72.804688 34.464844 72.960938 34.601562 73.09375 C 34.746094 73.21875 34.917969 73.320312 35.117188 73.390625 C 35.3125 73.464844 35.542969 73.5 35.804688 73.5 C 36.304688 73.5 36.6875 73.382812 36.960938 73.140625 C 37.230469 72.890625 37.367188 72.515625 37.367188 72.015625 C 37.367188 71.703125 37.296875 71.460938 37.164062 71.28125 C 37.039062 71.09375 36.875 70.949219 36.679688 70.84375 C 36.480469 70.742188 36.265625 70.671875 36.039062 70.640625 C 35.808594 70.609375 35.59375 70.59375 35.398438 70.59375 L 34.679688 70.59375 L 34.679688 68.921875 L 35.351562 68.921875 C 35.558594 68.921875 35.765625 68.90625 35.976562 68.875 C 36.183594 68.835938 36.371094 68.761719 36.539062 68.65625 C 36.714844 68.554688 36.855469 68.414062 36.960938 68.234375 C 37.074219 68.046875 37.132812 67.8125 37.132812 67.53125 C 37.132812 67.105469 37.011719 66.773438 36.773438 66.53125 C 36.53125 66.292969 36.1875 66.171875 35.742188 66.171875 C 35.3125 66.171875 34.96875 66.292969 34.710938 66.53125 C 34.449219 66.761719 34.296875 67.089844 34.257812 67.515625 L 32.195312 67.375 C 32.257812 66.886719 32.390625 66.464844 32.601562 66.109375 C 32.808594 65.757812 33.070312 65.464844 33.382812 65.234375 C 33.695312 64.996094 34.054688 64.820312 34.460938 64.703125 C 34.875 64.589844 35.3125 64.53125 35.773438 64.53125 C 36.375 64.53125 36.898438 64.605469 37.335938 64.75 C 37.773438 64.898438 38.125 65.09375 38.398438 65.34375 C 38.679688 65.59375 38.882812 65.886719 39.007812 66.21875 C 39.140625 66.542969 39.210938 66.890625 39.210938 67.265625 C 39.210938 67.578125 39.164062 67.867188 39.070312 68.125 C 38.984375 68.386719 38.855469 68.621094 38.679688 68.828125 C 38.5 69.039062 38.273438 69.214844 37.992188 69.359375 C 37.71875 69.507812 37.390625 69.617188 37.007812 69.6875 L 37.007812 69.71875 C 37.433594 69.773438 37.804688 69.871094 38.117188 70.015625 C 38.429688 70.152344 38.683594 70.328125 38.882812 70.546875 C 39.078125 70.765625 39.226562 71.011719 39.320312 71.28125 C 39.421875 71.554688 39.476562 71.839844 39.476562 72.140625 Z M 40.535156 75 L 40.535156 73.578125 C 40.773438 73.058594 41.058594 72.59375 41.394531 72.1875 C 41.726562 71.773438 42.074219 71.390625 42.441406 71.046875 C 42.816406 70.703125 43.183594 70.386719 43.550781 70.09375 C 43.914062 69.792969 44.242188 69.507812 44.535156 69.234375 C 44.824219 68.953125 45.058594 68.679688 45.238281 68.40625 C 45.425781 68.125 45.519531 67.828125 45.519531 67.515625 C 45.519531 67.058594 45.402344 66.71875 45.175781 66.5 C 44.945312 66.28125 44.605469 66.171875 44.160156 66.171875 C 43.722656 66.171875 43.382812 66.292969 43.144531 66.53125 C 42.914062 66.761719 42.769531 67.117188 42.707031 67.59375 L 40.628906 67.46875 C 40.679688 67.0625 40.777344 66.683594 40.925781 66.328125 C 41.082031 65.976562 41.300781 65.664062 41.582031 65.390625 C 41.863281 65.121094 42.210938 64.914062 42.628906 64.765625 C 43.054688 64.609375 43.558594 64.53125 44.144531 64.53125 C 44.695312 64.53125 45.183594 64.601562 45.613281 64.734375 C 46.050781 64.859375 46.414062 65.046875 46.707031 65.296875 C 46.996094 65.539062 47.214844 65.839844 47.363281 66.203125 C 47.519531 66.558594 47.597656 66.964844 47.597656 67.421875 C 47.597656 67.914062 47.503906 68.355469 47.316406 68.75 C 47.128906 69.136719 46.882812 69.496094 46.582031 69.828125 C 46.277344 70.152344 45.945312 70.460938 45.582031 70.75 C 45.226562 71.03125 44.878906 71.3125 44.535156 71.59375 C 44.191406 71.867188 43.878906 72.140625 43.597656 72.421875 C 43.316406 72.695312 43.105469 72.992188 42.972656 73.3125 L 47.753906 73.3125 L 47.753906 75 Z M 60.269531 75 L 59.363281 72.359375 L 55.425781 72.359375 L 54.503906 75 L 52.347656 75 L 56.113281 64.6875 L 58.660156 64.6875 L 62.410156 75 Z M 57.847656 67.765625 C 57.792969 67.601562 57.738281 67.433594 57.675781 67.265625 C 57.621094 67.089844 57.574219 66.929688 57.535156 66.78125 C 57.492188 66.636719 57.457031 66.515625 57.425781 66.421875 C 57.402344 66.328125 57.386719 66.277344 57.378906 66.265625 C 57.378906 66.289062 57.363281 66.34375 57.332031 66.4375 C 57.308594 66.523438 57.277344 66.636719 57.238281 66.78125 C 57.195312 66.929688 57.148438 67.089844 57.097656 67.265625 C 57.042969 67.433594 56.988281 67.601562 56.925781 67.765625 L 55.910156 70.734375 L 58.878906 70.734375 Z M 72.382812 75 L 72.382812 68.75 C 72.382812 68.5 72.382812 68.246094 72.382812 67.984375 C 72.390625 67.714844 72.402344 67.46875 72.414062 67.25 C 72.421875 66.992188 72.433594 66.742188 72.445312 66.5 C 72.351562 66.886719 72.257812 67.25 72.164062 67.59375 C 72.121094 67.742188 72.074219 67.890625 72.023438 68.046875 C 71.980469 68.203125 71.9375 68.355469 71.898438 68.5 C 71.855469 68.648438 71.8125 68.789062 71.773438 68.921875 C 71.742188 69.046875 71.710938 69.15625 71.679688 69.25 L 69.820312 75 L 68.289062 75 L 66.429688 69.25 C 66.398438 69.15625 66.359375 69.046875 66.320312 68.921875 C 66.289062 68.789062 66.25 68.648438 66.210938 68.5 C 66.167969 68.355469 66.121094 68.203125 66.070312 68.046875 C 66.027344 67.890625 65.984375 67.742188 65.945312 67.59375 C 65.851562 67.25 65.746094 66.886719 65.632812 66.5 C 65.652344 66.78125 65.667969 67.058594 65.679688 67.328125 C 65.6875 67.570312 65.699219 67.820312 65.710938 68.078125 C 65.71875 68.328125 65.726562 68.554688 65.726562 68.75 L 65.726562 75 L 63.804688 75 L 63.804688 64.6875 L 66.695312 64.6875 L 68.554688 70.453125 C 68.59375 70.601562 68.640625 70.789062 68.695312 71.015625 C 68.757812 71.234375 68.8125 71.445312 68.867188 71.640625 C 68.929688 71.882812 68.992188 72.132812 69.054688 72.390625 C 69.125 72.140625 69.195312 71.898438 69.257812 71.65625 C 69.289062 71.554688 69.3125 71.449219 69.335938 71.34375 C 69.367188 71.242188 69.398438 71.136719 69.429688 71.03125 C 69.460938 70.929688 69.492188 70.828125 69.523438 70.734375 C 69.554688 70.640625 69.578125 70.558594 69.601562 70.484375 L 71.414062 64.6875 L 74.289062 64.6875 L 74.289062 75 Z M 10 61.421875 "/>
<path style=" stroke:none;fill-rule:nonzero;fill:rgb(0%,0%,0%);fill-opacity:1;" d="M 432.703125 69.84375 C 432.703125 70.824219 432.609375 71.652344 432.421875 72.328125 C 432.242188 73.007812 431.992188 73.554688 431.671875 73.96875 C 431.347656 74.386719 430.96875 74.6875 430.53125 74.875 C 430.101562 75.050781 429.628906 75.140625 429.109375 75.140625 C 428.585938 75.140625 428.109375 75.050781 427.671875 74.875 C 427.242188 74.699219 426.875 74.402344 426.5625 73.984375 C 426.25 73.570312 426.003906 73.023438 425.828125 72.34375 C 425.648438 71.667969 425.5625 70.835938 425.5625 69.84375 C 425.5625 68.804688 425.644531 67.945312 425.8125 67.265625 C 425.988281 66.578125 426.234375 66.03125 426.546875 65.625 C 426.867188 65.21875 427.25 64.9375 427.6875 64.78125 C 428.132812 64.617188 428.628906 64.53125 429.171875 64.53125 C 429.671875 64.53125 430.132812 64.617188 430.5625 64.78125 C 431 64.9375 431.375 65.21875 431.6875 65.625 C 432 66.03125 432.242188 66.578125 432.421875 67.265625 C 432.609375 67.945312 432.703125 68.804688 432.703125 69.84375 Z M 430.625 69.84375 C 430.625 69.117188 430.597656 68.511719 430.546875 68.03125 C 430.492188 67.554688 430.410156 67.171875 430.296875 66.890625 C 430.179688 66.609375 430.023438 66.417969 429.828125 66.3125 C 429.640625 66.199219 429.414062 66.140625 429.15625 66.140625 C 428.863281 66.140625 428.617188 66.199219 428.421875 66.3125 C 428.234375 66.429688 428.078125 66.625 427.953125 66.90625 C 427.835938 67.1875 427.753906 67.570312 427.703125 68.046875 C 427.648438 68.527344 427.625 69.125 427.625 69.84375 C 427.625 70.542969 427.648438 71.132812 427.703125 71.609375 C 427.753906 72.078125 427.835938 72.460938 427.953125 72.75 C 428.078125 73.03125 428.234375 73.234375 428.421875 73.359375 C 428.609375 73.476562 428.84375 73.53125 429.125 73.53125 C 429.394531 73.53125 429.625 73.476562 429.8125 73.359375 C 430 73.234375 430.15625 73.03125 430.28125 72.75 C 430.40625 72.460938 430.492188 72.078125 430.546875 71.609375 C 430.597656 71.132812 430.625 70.542969 430.625 69.84375 Z M 441.09375 69.671875 C 441.09375 71.507812 440.757812 72.875 440.09375 73.78125 C 439.425781 74.6875 438.476562 75.140625 437.25 75.140625 C 436.800781 75.140625 436.398438 75.09375 436.046875 75 C 435.691406 74.917969 435.378906 74.777344 435.109375 74.578125 C 434.847656 74.382812 434.625 74.132812 434.4375 73.828125 C 434.257812 73.515625 434.117188 73.148438 434.015625 72.71875 L 435.953125 72.453125 C 436.046875 72.820312 436.203125 73.089844 436.421875 73.265625 C 436.648438 73.445312 436.929688 73.53125 437.265625 73.53125 C 437.546875 73.53125 437.796875 73.464844 438.015625 73.328125 C 438.234375 73.195312 438.421875 72.996094 438.578125 72.734375 C 438.734375 72.464844 438.851562 72.125 438.9375 71.71875 C 439.019531 71.304688 439.066406 70.8125 439.078125 70.25 C 438.984375 70.4375 438.851562 70.605469 438.6875 70.75 C 438.53125 70.898438 438.347656 71.023438 438.140625 71.125 C 437.941406 71.21875 437.726562 71.292969 437.5 71.34375 C 437.269531 71.398438 437.035156 71.421875 436.796875 71.421875 C 436.347656 71.421875 435.941406 71.34375 435.578125 71.1875 C 435.210938 71.023438 434.898438 70.792969 434.640625 70.5 C 434.378906 70.199219 434.175781 69.839844 434.03125 69.421875 C 433.894531 68.996094 433.828125 68.515625 433.828125 67.984375 C 433.828125 67.433594 433.910156 66.945312 434.078125 66.515625 C 434.242188 66.089844 434.476562 65.730469 434.78125 65.4375 C 435.09375 65.136719 435.472656 64.914062 435.921875 64.765625 C 436.367188 64.609375 436.875 64.53125 437.4375 64.53125 C 438.03125 64.53125 438.554688 64.636719 439.015625 64.84375 C 439.472656 65.042969 439.851562 65.355469 440.15625 65.78125 C 440.46875 66.199219 440.703125 66.730469 440.859375 67.375 C 441.015625 68.023438 441.09375 68.789062 441.09375 69.671875 Z M 438.921875 68.234375 C 438.921875 67.945312 438.882812 67.671875 438.8125 67.421875 C 438.75 67.164062 438.648438 66.9375 438.515625 66.75 C 438.390625 66.554688 438.234375 66.402344 438.046875 66.296875 C 437.859375 66.195312 437.640625 66.140625 437.390625 66.140625 C 437.160156 66.140625 436.953125 66.183594 436.765625 66.265625 C 436.585938 66.351562 436.4375 66.476562 436.3125 66.640625 C 436.1875 66.796875 436.085938 66.992188 436.015625 67.21875 C 435.953125 67.449219 435.921875 67.710938 435.921875 68 C 435.921875 68.273438 435.953125 68.523438 436.015625 68.75 C 436.078125 68.980469 436.171875 69.183594 436.296875 69.359375 C 436.421875 69.527344 436.570312 69.65625 436.75 69.75 C 436.9375 69.84375 437.148438 69.890625 437.390625 69.890625 C 437.578125 69.890625 437.765625 69.859375 437.953125 69.796875 C 438.140625 69.726562 438.300781 69.621094 438.4375 69.484375 C 438.582031 69.339844 438.695312 69.167969 438.78125 68.96875 C 438.875 68.761719 438.921875 68.515625 438.921875 68.234375 Z M 443.089844 69.484375 L 443.089844 67.421875 L 445.199219 67.421875 L 445.199219 69.484375 Z M 443.089844 75 L 443.089844 72.9375 L 445.199219 72.9375 L 445.199219 75 Z M 447.164062 75 L 447.164062 73.578125 C 447.402344 73.058594 447.6875 72.59375 448.023438 72.1875 C 448.355469 71.773438 448.703125 71.390625 449.070312 71.046875 C 449.445312 70.703125 449.8125 70.386719 450.179688 70.09375 C 450.542969 69.792969 450.871094 69.507812 451.164062 69.234375 C 451.453125 68.953125 451.6875 68.679688 451.867188 68.40625 C 452.054688 68.125 452.148438 67.828125 452.148438 67.515625 C 452.148438 67.058594 452.03125 66.71875 451.804688 66.5 C 451.574219 66.28125 451.234375 66.171875 450.789062 66.171875 C 450.351562 66.171875 450.011719 66.292969 449.773438 66.53125 C 449.542969 66.761719 449.398438 67.117188 449.335938 67.59375 L 447.257812 67.46875 C 447.308594 67.0625 447.40625 66.683594 447.554688 66.328125 C 447.710938 65.976562 447.929688 65.664062 448.210938 65.390625 C 448.492188 65.121094 448.839844 64.914062 449.257812 64.765625 C 449.683594 64.609375 450.1875 64.53125 450.773438 64.53125 C 451.324219 64.53125 451.8125 64.601562 452.242188 64.734375 C 452.679688 64.859375 453.042969 65.046875 453.335938 65.296875 C 453.625 65.539062 453.84375 65.839844 453.992188 66.203125 C 454.148438 66.558594 454.226562 66.964844 454.226562 67.421875 C 454.226562 67.914062 454.132812 68.355469 453.945312 68.75 C 453.757812 69.136719 453.511719 69.496094 453.210938 69.828125 C 452.90625 70.152344 452.574219 70.460938 452.210938 70.75 C 451.855469 71.03125 451.507812 71.3125 451.164062 71.59375 C 450.820312 71.867188 450.507812 72.140625 450.226562 72.421875 C 449.945312 72.695312 449.734375 72.992188 449.601562 73.3125 L 454.382812 73.3125 L 454.382812 75 Z M 462.863281 72.09375 C 462.863281 72.542969 462.789062 72.953125 462.644531 73.328125 C 462.496094 73.695312 462.273438 74.011719 461.972656 74.28125 C 461.667969 74.554688 461.285156 74.765625 460.816406 74.921875 C 460.355469 75.066406 459.808594 75.140625 459.175781 75.140625 C 458.539062 75.140625 457.988281 75.066406 457.519531 74.921875 C 457.050781 74.765625 456.664062 74.554688 456.363281 74.28125 C 456.058594 74.011719 455.832031 73.695312 455.675781 73.328125 C 455.527344 72.953125 455.457031 72.546875 455.457031 72.109375 C 455.457031 71.734375 455.511719 71.402344 455.628906 71.109375 C 455.753906 70.820312 455.910156 70.570312 456.097656 70.359375 C 456.292969 70.152344 456.519531 69.984375 456.769531 69.859375 C 457.027344 69.734375 457.292969 69.652344 457.566406 69.609375 L 457.566406 69.578125 C 457.273438 69.515625 457.011719 69.414062 456.785156 69.265625 C 456.554688 69.109375 456.355469 68.933594 456.191406 68.734375 C 456.035156 68.527344 455.914062 68.296875 455.832031 68.046875 C 455.746094 67.796875 455.707031 67.539062 455.707031 67.265625 C 455.707031 66.851562 455.777344 66.476562 455.925781 66.140625 C 456.082031 65.796875 456.300781 65.511719 456.582031 65.28125 C 456.871094 65.042969 457.230469 64.859375 457.660156 64.734375 C 458.085938 64.601562 458.582031 64.53125 459.144531 64.53125 C 459.738281 64.53125 460.253906 64.601562 460.691406 64.734375 C 461.128906 64.859375 461.488281 65.046875 461.769531 65.296875 C 462.058594 65.539062 462.273438 65.828125 462.410156 66.171875 C 462.542969 66.507812 462.613281 66.871094 462.613281 67.265625 C 462.613281 67.539062 462.570312 67.804688 462.488281 68.0625 C 462.402344 68.3125 462.277344 68.542969 462.113281 68.75 C 461.957031 68.949219 461.757812 69.121094 461.519531 69.265625 C 461.289062 69.402344 461.027344 69.5 460.738281 69.5625 L 460.738281 69.59375 C 461.039062 69.636719 461.320312 69.726562 461.582031 69.859375 C 461.839844 69.984375 462.066406 70.152344 462.253906 70.359375 C 462.449219 70.570312 462.601562 70.820312 462.707031 71.109375 C 462.808594 71.402344 462.863281 71.730469 462.863281 72.09375 Z M 460.503906 67.375 C 460.503906 67.179688 460.476562 66.996094 460.425781 66.828125 C 460.382812 66.652344 460.308594 66.5 460.207031 66.375 C 460.101562 66.25 459.960938 66.152344 459.785156 66.078125 C 459.617188 66.007812 459.402344 65.96875 459.144531 65.96875 C 458.882812 65.96875 458.667969 66.007812 458.503906 66.078125 C 458.335938 66.152344 458.199219 66.25 458.097656 66.375 C 457.992188 66.5 457.914062 66.652344 457.863281 66.828125 C 457.820312 66.996094 457.800781 67.179688 457.800781 67.375 C 457.800781 67.5625 457.820312 67.746094 457.863281 67.921875 C 457.902344 68.101562 457.972656 68.257812 458.066406 68.390625 C 458.160156 68.527344 458.292969 68.640625 458.472656 68.734375 C 458.648438 68.820312 458.878906 68.859375 459.160156 68.859375 C 459.449219 68.859375 459.683594 68.820312 459.863281 68.734375 C 460.039062 68.640625 460.175781 68.527344 460.269531 68.390625 C 460.363281 68.246094 460.425781 68.085938 460.457031 67.90625 C 460.488281 67.730469 460.503906 67.554688 460.503906 67.375 Z M 460.738281 71.921875 C 460.738281 71.714844 460.710938 71.511719 460.660156 71.3125 C 460.617188 71.117188 460.535156 70.945312 460.410156 70.796875 C 460.292969 70.652344 460.132812 70.539062 459.925781 70.453125 C 459.714844 70.359375 459.449219 70.3125 459.128906 70.3125 C 458.835938 70.3125 458.589844 70.359375 458.394531 70.453125 C 458.195312 70.539062 458.035156 70.65625 457.910156 70.8125 C 457.792969 70.960938 457.710938 71.132812 457.660156 71.328125 C 457.605469 71.527344 457.582031 71.734375 457.582031 71.953125 C 457.582031 72.214844 457.605469 72.453125 457.660156 72.671875 C 457.710938 72.882812 457.800781 73.0625 457.925781 73.21875 C 458.050781 73.375 458.210938 73.496094 458.410156 73.578125 C 458.617188 73.664062 458.878906 73.703125 459.191406 73.703125 C 459.492188 73.703125 459.742188 73.664062 459.941406 73.578125 C 460.148438 73.484375 460.308594 73.359375 460.425781 73.203125 C 460.539062 73.046875 460.617188 72.859375 460.660156 72.640625 C 460.710938 72.421875 460.738281 72.183594 460.738281 71.921875 Z M 477 67.953125 C 477 68.390625 476.921875 68.820312 476.765625 69.234375 C 476.617188 69.640625 476.390625 70.007812 476.078125 70.328125 C 475.773438 70.640625 475.382812 70.890625 474.90625 71.078125 C 474.4375 71.265625 473.878906 71.359375 473.234375 71.359375 L 470.671875 71.359375 L 470.671875 75 L 468.5 75 L 468.5 64.6875 L 473.140625 64.6875 C 473.796875 64.6875 474.363281 64.765625 474.84375 64.921875 C 475.332031 65.078125 475.734375 65.304688 476.046875 65.59375 C 476.367188 65.875 476.609375 66.21875 476.765625 66.625 C 476.921875 67.023438 477 67.464844 477 67.953125 Z M 474.8125 67.984375 C 474.8125 67.453125 474.648438 67.054688 474.328125 66.78125 C 474.015625 66.5 473.535156 66.359375 472.890625 66.359375 L 470.671875 66.359375 L 470.671875 69.703125 L 472.953125 69.703125 C 473.273438 69.703125 473.550781 69.664062 473.78125 69.578125 C 474.019531 69.496094 474.210938 69.382812 474.359375 69.234375 C 474.515625 69.078125 474.628906 68.898438 474.703125 68.6875 C 474.773438 68.46875 474.8125 68.234375 474.8125 67.984375 Z M 487.082031 75 L 487.082031 68.75 C 487.082031 68.5 487.082031 68.246094 487.082031 67.984375 C 487.089844 67.714844 487.101562 67.46875 487.113281 67.25 C 487.121094 66.992188 487.132812 66.742188 487.144531 66.5 C 487.050781 66.886719 486.957031 67.25 486.863281 67.59375 C 486.820312 67.742188 486.773438 67.890625 486.722656 68.046875 C 486.679688 68.203125 486.636719 68.355469 486.597656 68.5 C 486.554688 68.648438 486.511719 68.789062 486.472656 68.921875 C 486.441406 69.046875 486.410156 69.15625 486.378906 69.25 L 484.519531 75 L 482.988281 75 L 481.128906 69.25 C 481.097656 69.15625 481.058594 69.046875 481.019531 68.921875 C 480.988281 68.789062 480.949219 68.648438 480.910156 68.5 C 480.867188 68.355469 480.820312 68.203125 480.769531 68.046875 C 480.726562 67.890625 480.683594 67.742188 480.644531 67.59375 C 480.550781 67.25 480.445312 66.886719 480.332031 66.5 C 480.351562 66.78125 480.367188 67.058594 480.378906 67.328125 C 480.386719 67.570312 480.398438 67.820312 480.410156 68.078125 C 480.417969 68.328125 480.425781 68.554688 480.425781 68.75 L 480.425781 75 L 478.503906 75 L 478.503906 64.6875 L 481.394531 64.6875 L 483.253906 70.453125 C 483.292969 70.601562 483.339844 70.789062 483.394531 71.015625 C 483.457031 71.234375 483.511719 71.445312 483.566406 71.640625 C 483.628906 71.882812 483.691406 72.132812 483.753906 72.390625 C 483.824219 72.140625 483.894531 71.898438 483.957031 71.65625 C 483.988281 71.554688 484.011719 71.449219 484.035156 71.34375 C 484.066406 71.242188 484.097656 71.136719 484.128906 71.03125 C 484.160156 70.929688 484.191406 70.828125 484.222656 70.734375 C 484.253906 70.640625 484.277344 70.558594 484.300781 70.484375 L 486.113281 64.6875 L 488.988281 64.6875 L 488.988281 75 Z M 424.96875 61.421875 "/>
</g>
</svg>
