<?xml version="1.0" encoding="UTF-8"?>
<svg xmlns="http://www.w3.org/2000/svg" xmlns:xlink="http://www.w3.org/1999/xlink" width="500" height="300" viewBox="0 0 500 300">
<rect x="-50" y="-30" width="600" height="360" fill="rgb(0%, 0%, 0%)" fill-opacity="1"/>
<path fill="none" stroke-width="2" stroke-linecap="butt" stroke-linejoin="miter" stroke="rgb(100%, 100%, 100%)" stroke-opacity="1" stroke-miterlimit="10" d="M 0 150 L 500 150 "/>
<path fill="none" stroke-width="1" stroke-linecap="butt" stroke-linejoin="miter" stroke="rgb(100%, 100%, 100%)" stroke-opacity="1" stroke-miterlimit="10" d="M 450 150 C 450 94.773438 360.457031 50 250 50 C 139.542969 50 50 94.773438 50 150 "/>
<path fill="none" stroke-width="1" stroke-linecap="butt" stroke-linejoin="miter" stroke="rgb(100%, 100%, 100%)" stroke-opacity="1" stroke-dasharray="5 5" stroke-miterlimit="10" d="M 50 150 C 50 205.226562 139.542969 250 250 250 C 360.457031 250 450 205.226562 450 150 "/>
<path fill="none" stroke-width="1" stroke-linecap="butt" stroke-linejoin="miter" stroke="rgb(100%, 100%, 100%)" stroke-opacity="1" stroke-miterlimit="10" d="M 438.324219 195.28125 C 438.324219 200.800781 433.847656 205.28125 428.324219 205.28125 C 422.800781 205.28125 418.324219 200.800781 418.324219 195.28125 C 418.324219 189.757812 422.800781 185.28125 428.324219 185.28125 C 433.847656 185.28125 438.324219 189.757812 438.324219 195.28125 "/>
<path fill="none" stroke-width="1" stroke-linecap="butt" stroke-linejoin="miter" stroke="rgb(100%, 100%, 100%)" stroke-opacity="1" stroke-miterlimit="10" d="M 250 150 L 428.324219 195.28125 "/>
<path fill-rule="nonzero" fill="rgb(100%, 100%, 100%)" fill-opacity="1" d="M 17.777344 74.425781 L 17.777344 76.074219 C 17.773438 77.050781 17.492188 77.988281 16.929688 78.878906 C 16.363281 79.773438 15.558594 80.214844 14.511719 80.21875 C 13.902344 80.214844 13.390625 80.085938 12.976562 79.820312 C 12.558594 79.558594 12.160156 79.066406 11.789062 78.347656 C 11.414062 77.632812 11.230469 76.875 11.230469 76.074219 L 11.230469 74.425781 C 11.230469 73.457031 11.507812 72.523438 12.070312 71.625 C 12.628906 70.734375 13.4375 70.285156 14.488281 70.28125 C 15.089844 70.285156 15.597656 70.417969 16.015625 70.675781 C 16.433594 70.941406 16.832031 71.429688 17.210938 72.144531 C 17.585938 72.863281 17.773438 73.625 17.777344 74.425781 Z M 16.269531 74.425781 C 16.269531 73.613281 16.042969 72.898438 15.589844 72.289062 C 15.328125 71.953125 14.960938 71.785156 14.496094 71.78125 C 14.039062 71.785156 13.667969 71.972656 13.382812 72.339844 C 12.945312 72.902344 12.730469 73.597656 12.730469 74.425781 L 12.730469 76.074219 C 12.730469 76.894531 12.960938 77.609375 13.421875 78.210938 C 13.671875 78.554688 14.035156 78.722656 14.511719 78.71875 C 14.960938 78.722656 15.328125 78.535156 15.617188 78.160156 C 16.050781 77.601562 16.269531 76.90625 16.269531 76.074219 Z M 25.050781 72.023438 L 21.613281 72.023438 C 21.59375 72.320312 21.515625 72.53125 21.386719 72.660156 C 21.253906 72.789062 21.082031 72.851562 20.867188 72.851562 C 20.640625 72.851562 20.457031 72.777344 20.320312 72.625 C 20.179688 72.476562 20.113281 72.21875 20.113281 71.855469 L 20.113281 70.523438 L 26.632812 70.523438 L 26.632812 72.023438 L 24.199219 79.261719 C 24.09375 79.566406 23.980469 79.769531 23.859375 79.867188 C 23.730469 79.964844 23.582031 80.011719 23.410156 80.015625 C 23.195312 80.011719 23.015625 79.941406 22.871094 79.796875 C 22.71875 79.652344 22.644531 79.484375 22.648438 79.289062 C 22.644531 79.1875 22.683594 79.015625 22.765625 78.777344 Z M 33.636719 74.351562 C 33.632812 74.636719 33.535156 74.875 33.335938 75.0625 C 33.132812 75.253906 32.855469 75.347656 32.507812 75.347656 C 32.152344 75.347656 31.875 75.253906 31.679688 75.0625 C 31.476562 74.875 31.378906 74.636719 31.378906 74.351562 C 31.378906 74.070312 31.476562 73.835938 31.679688 73.644531 C 31.875 73.453125 32.152344 73.355469 32.507812 73.355469 C 32.855469 73.355469 33.132812 73.453125 33.335938 73.644531 C 33.535156 73.835938 33.632812 74.070312 33.636719 74.351562 Z M 33.652344 79.265625 C 33.652344 79.554688 33.550781 79.792969 33.351562 79.980469 C 33.148438 80.171875 32.871094 80.261719 32.523438 80.265625 C 32.167969 80.261719 31.894531 80.171875 31.695312 79.980469 C 31.492188 79.792969 31.390625 79.554688 31.394531 79.265625 C 31.390625 78.988281 31.492188 78.75 31.695312 78.558594 C 31.894531 78.371094 32.167969 78.277344 32.523438 78.273438 C 32.871094 78.277344 33.148438 78.371094 33.351562 78.558594 C 33.550781 78.75 33.652344 78.988281 33.652344 79.265625 Z M 43.652344 74.984375 C 44.09375 75.289062 44.421875 75.640625 44.644531 76.035156 C 44.863281 76.4375 44.976562 76.882812 44.976562 77.371094 C 44.976562 77.90625 44.828125 78.398438 44.539062 78.847656 C 44.246094 79.300781 43.828125 79.640625 43.277344 79.871094 C 42.722656 80.101562 42 80.214844 41.109375 80.21875 C 39.945312 80.214844 39.070312 80.039062 38.488281 79.679688 C 38.15625 79.476562 37.992188 79.230469 37.996094 78.945312 C 37.992188 78.734375 38.0625 78.554688 38.210938 78.402344 C 38.351562 78.253906 38.527344 78.179688 38.734375 78.175781 C 38.875 78.179688 39.023438 78.226562 39.175781 78.324219 C 39.390625 78.472656 39.59375 78.570312 39.785156 78.617188 C 40.074219 78.6875 40.476562 78.722656 40.992188 78.71875 C 41.867188 78.722656 42.5 78.609375 42.890625 78.378906 C 43.28125 78.15625 43.476562 77.835938 43.476562 77.414062 C 43.476562 77.109375 43.359375 76.8125 43.132812 76.527344 C 42.902344 76.242188 42.601562 76.019531 42.222656 75.863281 C 42.003906 75.777344 41.632812 75.71875 41.109375 75.679688 C 40.859375 75.667969 40.664062 75.589844 40.53125 75.449219 C 40.394531 75.3125 40.328125 75.140625 40.332031 74.929688 C 40.328125 74.71875 40.402344 74.539062 40.550781 74.390625 C 40.695312 74.25 40.882812 74.175781 41.109375 74.171875 C 41.605469 74.175781 41.871094 74.171875 41.90625 74.164062 C 42.101562 74.144531 42.296875 74.082031 42.492188 73.972656 C 42.6875 73.867188 42.84375 73.71875 42.964844 73.53125 C 43.082031 73.34375 43.140625 73.148438 43.144531 72.945312 C 43.140625 72.628906 43 72.355469 42.722656 72.121094 C 42.441406 71.890625 42.023438 71.773438 41.460938 71.773438 C 40.734375 71.773438 40.179688 71.984375 39.804688 72.40625 C 39.6875 72.527344 39.597656 72.605469 39.535156 72.640625 C 39.429688 72.695312 39.316406 72.722656 39.191406 72.71875 C 38.984375 72.722656 38.808594 72.648438 38.664062 72.5 C 38.515625 72.355469 38.441406 72.175781 38.445312 71.957031 C 38.441406 71.625 38.667969 71.296875 39.117188 70.976562 C 39.769531 70.515625 40.585938 70.285156 41.570312 70.28125 C 42.496094 70.285156 43.242188 70.550781 43.804688 71.074219 C 44.367188 71.605469 44.648438 72.238281 44.648438 72.976562 C 44.648438 73.363281 44.5625 73.722656 44.398438 74.058594 C 44.226562 74.394531 43.980469 74.703125 43.652344 74.984375 Z M 51.273438 70.28125 L 51.273438 78.5 L 52.789062 78.5 C 53.148438 78.5 53.40625 78.570312 53.5625 78.707031 C 53.710938 78.847656 53.789062 79.03125 53.792969 79.253906 C 53.789062 79.476562 53.710938 79.65625 53.5625 79.792969 C 53.40625 79.933594 53.148438 80 52.789062 80 L 48.257812 80 C 47.894531 80 47.636719 79.933594 47.484375 79.792969 C 47.328125 79.65625 47.25 79.472656 47.253906 79.246094 C 47.25 79.027344 47.328125 78.847656 47.484375 78.707031 C 47.636719 78.570312 47.894531 78.5 48.257812 78.5 L 49.773438 78.5 L 49.773438 72.234375 L 48.433594 72.585938 C 48.214844 72.648438 48.050781 72.675781 47.949219 72.675781 C 47.753906 72.675781 47.589844 72.601562 47.453125 72.449219 C 47.3125 72.300781 47.242188 72.113281 47.246094 71.890625 C 47.242188 71.695312 47.292969 71.539062 47.398438 71.421875 C 47.5 71.304688 47.714844 71.203125 48.042969 71.117188 Z M 70.347656 77.582031 L 66.699219 77.582031 L 66.332031 78.5 L 66.699219 78.5 C 67.058594 78.5 67.316406 78.570312 67.472656 78.707031 C 67.625 78.847656 67.703125 79.03125 67.703125 79.253906 C 67.703125 79.476562 67.625 79.65625 67.472656 79.792969 C 67.316406 79.933594 67.058594 80 66.699219 80 L 64.679688 80 C 64.316406 80 64.058594 79.933594 63.90625 79.792969 C 63.753906 79.65625 63.679688 79.472656 63.675781 79.246094 C 63.679688 79.023438 63.757812 78.839844 63.917969 78.699219 C 64.078125 78.558594 64.34375 78.492188 64.714844 78.5 L 67.074219 72.625 L 66.089844 72.625 C 65.726562 72.628906 65.46875 72.558594 65.320312 72.417969 C 65.164062 72.277344 65.089844 72.097656 65.089844 71.871094 C 65.089844 71.648438 65.164062 71.464844 65.320312 71.324219 C 65.46875 71.1875 65.726562 71.117188 66.089844 71.117188 L 69.335938 71.125 L 72.324219 78.5 C 72.671875 78.5 72.902344 78.539062 73.019531 78.617188 C 73.238281 78.78125 73.351562 78.996094 73.355469 79.253906 C 73.351562 79.476562 73.277344 79.65625 73.128906 79.792969 C 72.976562 79.933594 72.71875 80 72.363281 80 L 70.339844 80 C 69.976562 80 69.71875 79.933594 69.566406 79.792969 C 69.410156 79.65625 69.332031 79.472656 69.335938 79.246094 C 69.332031 79.027344 69.410156 78.847656 69.566406 78.707031 C 69.71875 78.570312 69.976562 78.5 70.339844 78.5 L 70.707031 78.5 Z M 69.722656 76.082031 L 68.515625 73.109375 L 67.300781 76.082031 Z M 75.167969 74.023438 L 75.167969 78.5 L 75.710938 78.5 C 76.070312 78.5 76.328125 78.570312 76.484375 78.707031 C 76.636719 78.847656 76.710938 79.03125 76.714844 79.253906 C 76.710938 79.476562 76.636719 79.65625 76.484375 79.792969 C 76.328125 79.933594 76.070312 80 75.710938 80 L 73.742188 80 C 73.378906 80 73.121094 79.933594 72.96875 79.792969 C 72.816406 79.65625 72.742188 79.472656 72.738281 79.246094 C 72.742188 79.027344 72.816406 78.847656 72.964844 78.707031 C 73.117188 78.570312 73.347656 78.5 73.667969 78.5 L 73.667969 72.625 C 73.402344 72.601562 73.203125 72.519531 73.070312 72.382812 C 72.933594 72.25 72.871094 72.082031 72.867188 71.871094 C 72.871094 71.648438 72.945312 71.464844 73.097656 71.324219 C 73.253906 71.1875 73.511719 71.117188 73.871094 71.117188 L 75.519531 71.125 L 77.5625 75.640625 L 79.570312 71.117188 L 81.234375 71.125 C 81.589844 71.128906 81.847656 71.195312 82.003906 71.328125 C 82.160156 71.464844 82.238281 71.648438 82.238281 71.871094 C 82.238281 72.082031 82.167969 72.25 82.03125 72.382812 C 81.894531 72.519531 81.695312 72.601562 81.4375 72.625 L 81.4375 78.5 C 81.75 78.5 81.984375 78.570312 82.140625 78.710938 C 82.289062 78.851562 82.367188 79.035156 82.367188 79.253906 C 82.367188 79.476562 82.289062 79.65625 82.136719 79.792969 C 81.980469 79.933594 81.722656 80 81.367188 80 L 79.386719 80 C 79.027344 80 78.773438 79.933594 78.621094 79.792969 C 78.464844 79.65625 78.386719 79.472656 78.390625 79.246094 C 78.386719 79.027344 78.464844 78.847656 78.621094 78.707031 C 78.773438 78.570312 79.027344 78.5 79.386719 78.5 L 79.9375 78.5 L 79.9375 74.023438 L 78.214844 77.890625 L 76.914062 77.890625 Z M 10 67.511719 "/>
<path fill-rule="nonzero" fill="rgb(100%, 100%, 100%)" fill-opacity="1" d="M 425.761719 74.425781 L 425.761719 76.074219 C 425.757812 77.050781 425.476562 77.988281 424.914062 78.878906 C 424.347656 79.773438 423.542969 80.214844 422.496094 80.21875 C 421.886719 80.214844 421.375 80.085938 420.960938 79.820312 C 420.542969 79.558594 420.144531 79.066406 419.773438 78.347656 C 419.398438 77.632812 419.214844 76.875 419.214844 76.074219 L 419.214844 74.425781 C 419.214844 73.457031 419.492188 72.523438 420.054688 71.625 C 420.613281 70.734375 421.421875 70.285156 422.472656 70.28125 C 423.074219 70.285156 423.582031 70.417969 424 70.675781 C 424.417969 70.941406 424.816406 71.429688 425.195312 72.144531 C 425.570312 72.863281 425.757812 73.625 425.761719 74.425781 Z M 424.253906 74.425781 C 424.253906 73.613281 424.027344 72.898438 423.574219 72.289062 C 423.3125 71.953125 422.945312 71.785156 422.480469 71.78125 C 422.023438 71.785156 421.652344 71.972656 421.367188 72.339844 C 420.929688 72.902344 420.714844 73.597656 420.714844 74.425781 L 420.714844 76.074219 C 420.714844 76.894531 420.945312 77.609375 421.40625 78.210938 C 421.65625 78.554688 422.019531 78.722656 422.496094 78.71875 C 422.945312 78.722656 423.3125 78.535156 423.601562 78.160156 C 424.035156 77.601562 424.253906 76.90625 424.253906 76.074219 Z M 433.597656 76.058594 C 433.21875 76.382812 432.875 76.613281 432.566406 76.746094 C 432.25 76.882812 431.921875 76.949219 431.578125 76.945312 C 430.769531 76.949219 430.0625 76.625 429.460938 75.980469 C 428.855469 75.335938 428.554688 74.535156 428.558594 73.578125 C 428.554688 72.832031 428.761719 72.152344 429.179688 71.539062 C 429.746094 70.703125 430.546875 70.285156 431.578125 70.28125 C 432.3125 70.285156 432.953125 70.507812 433.507812 70.945312 C 434.054688 71.390625 434.460938 72.027344 434.722656 72.855469 C 434.980469 73.691406 435.109375 74.558594 435.113281 75.460938 C 435.109375 76.996094 434.519531 78.226562 433.335938 79.148438 C 432.414062 79.863281 431.40625 80.214844 430.316406 80.21875 C 429.710938 80.214844 429.242188 80.097656 428.910156 79.851562 C 428.683594 79.695312 428.570312 79.480469 428.574219 79.214844 C 428.570312 79.003906 428.644531 78.828125 428.789062 78.679688 C 428.933594 78.539062 429.109375 78.464844 429.320312 78.460938 C 429.433594 78.464844 429.566406 78.5 429.714844 78.570312 C 429.902344 78.671875 430.101562 78.722656 430.316406 78.71875 C 431.070312 78.722656 431.769531 78.464844 432.410156 77.945312 C 433.050781 77.433594 433.445312 76.804688 433.597656 76.058594 Z M 433.386719 73.695312 C 433.222656 73 432.984375 72.507812 432.671875 72.21875 C 432.355469 71.929688 431.996094 71.785156 431.589844 71.78125 C 431.164062 71.785156 430.800781 71.949219 430.507812 72.269531 C 430.207031 72.597656 430.058594 73.027344 430.0625 73.5625 C 430.058594 74.128906 430.210938 74.582031 430.511719 74.925781 C 430.808594 75.273438 431.148438 75.449219 431.539062 75.445312 C 432.214844 75.449219 432.832031 74.863281 433.386719 73.695312 Z M 441.621094 74.351562 C 441.617188 74.636719 441.519531 74.875 441.320312 75.0625 C 441.117188 75.253906 440.839844 75.347656 440.492188 75.347656 C 440.136719 75.347656 439.859375 75.253906 439.664062 75.0625 C 439.460938 74.875 439.363281 74.636719 439.363281 74.351562 C 439.363281 74.070312 439.460938 73.835938 439.664062 73.644531 C 439.859375 73.453125 440.136719 73.355469 440.492188 73.355469 C 440.839844 73.355469 441.117188 73.453125 441.320312 73.644531 C 441.519531 73.835938 441.617188 74.070312 441.621094 74.351562 Z M 441.636719 79.265625 C 441.636719 79.554688 441.535156 79.792969 441.335938 79.980469 C 441.132812 80.171875 440.855469 80.261719 440.507812 80.265625 C 440.152344 80.261719 439.878906 80.171875 439.679688 79.980469 C 439.476562 79.792969 439.375 79.554688 439.378906 79.265625 C 439.375 78.988281 439.476562 78.75 439.679688 78.558594 C 439.878906 78.371094 440.152344 78.277344 440.507812 78.273438 C 440.855469 78.277344 441.132812 78.371094 441.335938 78.558594 C 441.535156 78.75 441.636719 78.988281 441.636719 79.265625 Z M 448.089844 78.5 L 451.378906 78.5 C 451.558594 78.351562 451.726562 78.277344 451.890625 78.277344 C 452.117188 78.277344 452.300781 78.355469 452.4375 78.507812 C 452.570312 78.660156 452.636719 78.917969 452.640625 79.28125 L 452.640625 80 L 445.796875 80 L 445.796875 78.410156 C 448.5 76.183594 450.136719 74.746094 450.699219 74.105469 C 450.980469 73.777344 451.121094 73.46875 451.121094 73.171875 C 451.121094 72.8125 450.960938 72.488281 450.640625 72.203125 C 450.320312 71.925781 449.894531 71.785156 449.363281 71.78125 C 448.824219 71.785156 448.375 71.941406 448.023438 72.25 C 447.835938 72.417969 447.6875 72.664062 447.578125 72.992188 C 447.507812 73.195312 447.414062 73.34375 447.296875 73.429688 C 447.171875 73.523438 447.023438 73.566406 446.851562 73.5625 C 446.644531 73.566406 446.46875 73.492188 446.320312 73.34375 C 446.167969 73.195312 446.09375 73.023438 446.097656 72.828125 C 446.09375 72.539062 446.230469 72.175781 446.503906 71.730469 C 446.773438 71.292969 447.167969 70.941406 447.691406 70.675781 C 448.210938 70.417969 448.777344 70.285156 449.386719 70.28125 C 450.332031 70.285156 451.105469 70.570312 451.714844 71.140625 C 452.316406 71.714844 452.621094 72.410156 452.625 73.226562 C 452.621094 73.640625 452.535156 74.027344 452.363281 74.378906 C 452.191406 74.738281 451.773438 75.226562 451.117188 75.847656 C 450.59375 76.34375 449.585938 77.226562 448.089844 78.5 Z M 460.605469 76.058594 C 460.226562 76.382812 459.882812 76.613281 459.574219 76.746094 C 459.257812 76.882812 458.929688 76.949219 458.585938 76.945312 C 457.777344 76.949219 457.070312 76.625 456.46875 75.980469 C 455.863281 75.335938 455.5625 74.535156 455.566406 73.578125 C 455.5625 72.832031 455.769531 72.152344 456.1875 71.539062 C 456.753906 70.703125 457.554688 70.285156 458.585938 70.28125 C 459.320312 70.285156 459.960938 70.507812 460.515625 70.945312 C 461.0625 71.390625 461.46875 72.027344 461.730469 72.855469 C 461.988281 73.691406 462.117188 74.558594 462.121094 75.460938 C 462.117188 76.996094 461.527344 78.226562 460.34375 79.148438 C 459.421875 79.863281 458.414062 80.214844 457.324219 80.21875 C 456.71875 80.214844 456.25 80.097656 455.917969 79.851562 C 455.691406 79.695312 455.578125 79.480469 455.582031 79.214844 C 455.578125 79.003906 455.652344 78.828125 455.796875 78.679688 C 455.941406 78.539062 456.117188 78.464844 456.328125 78.460938 C 456.441406 78.464844 456.574219 78.5 456.722656 78.570312 C 456.910156 78.671875 457.109375 78.722656 457.324219 78.71875 C 458.078125 78.722656 458.777344 78.464844 459.417969 77.945312 C 460.058594 77.433594 460.453125 76.804688 460.605469 76.058594 Z M 460.394531 73.695312 C 460.230469 73 459.992188 72.507812 459.679688 72.21875 C 459.363281 71.929688 459.003906 71.785156 458.597656 71.78125 C 458.171875 71.785156 457.808594 71.949219 457.515625 72.269531 C 457.214844 72.597656 457.066406 73.027344 457.070312 73.5625 C 457.066406 74.128906 457.21875 74.582031 457.519531 74.925781 C 457.816406 75.273438 458.15625 75.449219 458.546875 75.445312 C 459.222656 75.449219 459.839844 74.863281 460.394531 73.695312 Z M 475.628906 76.953125 L 475.628906 78.5 L 477.144531 78.5 C 477.503906 78.5 477.761719 78.570312 477.917969 78.707031 C 478.070312 78.847656 478.148438 79.03125 478.148438 79.253906 C 478.148438 79.476562 478.070312 79.65625 477.917969 79.792969 C 477.761719 79.933594 477.503906 80 477.144531 80 L 473.894531 80 C 473.53125 80 473.273438 79.933594 473.121094 79.792969 C 472.964844 79.65625 472.886719 79.472656 472.890625 79.246094 C 472.886719 79.027344 472.964844 78.847656 473.125 78.707031 C 473.277344 78.570312 473.535156 78.5 473.894531 78.5 L 474.128906 78.5 L 474.128906 72.625 L 473.894531 72.625 C 473.53125 72.628906 473.273438 72.558594 473.121094 72.417969 C 472.964844 72.277344 472.886719 72.097656 472.890625 71.871094 C 472.886719 71.648438 472.964844 71.464844 473.121094 71.324219 C 473.273438 71.1875 473.53125 71.117188 473.894531 71.117188 L 477.351562 71.125 C 478.367188 71.128906 479.167969 71.40625 479.761719 71.957031 C 480.351562 72.511719 480.648438 73.1875 480.652344 73.980469 C 480.648438 74.425781 480.550781 74.839844 480.351562 75.226562 C 480.199219 75.519531 479.945312 75.808594 479.59375 76.09375 C 479.238281 76.378906 478.875 76.59375 478.507812 76.738281 C 478.136719 76.882812 477.652344 76.953125 477.050781 76.953125 Z M 475.628906 75.453125 L 477.019531 75.453125 C 477.671875 75.453125 478.191406 75.308594 478.578125 75.011719 C 478.957031 74.71875 479.148438 74.359375 479.152344 73.941406 C 479.148438 73.589844 478.996094 73.285156 478.6875 73.019531 C 478.375 72.761719 477.929688 72.628906 477.355469 72.625 L 475.628906 72.625 Z M 483.152344 74.023438 L 483.152344 78.5 L 483.695312 78.5 C 484.054688 78.5 484.3125 78.570312 484.46875 78.707031 C 484.621094 78.847656 484.695312 79.03125 484.699219 79.253906 C 484.695312 79.476562 484.621094 79.65625 484.46875 79.792969 C 484.3125 79.933594 484.054688 80 483.695312 80 L 481.726562 80 C 481.363281 80 481.105469 79.933594 480.953125 79.792969 C 480.800781 79.65625 480.726562 79.472656 480.722656 79.246094 C 480.726562 79.027344 480.800781 78.847656 480.949219 78.707031 C 481.101562 78.570312 481.332031 78.5 481.652344 78.5 L 481.652344 72.625 C 481.386719 72.601562 481.1875 72.519531 481.054688 72.382812 C 480.917969 72.25 480.855469 72.082031 480.851562 71.871094 C 480.855469 71.648438 480.929688 71.464844 481.082031 71.324219 C 481.238281 71.1875 481.496094 71.117188 481.855469 71.117188 L 483.503906 71.125 L 485.546875 75.640625 L 487.554688 71.117188 L 489.21875 71.125 C 489.574219 71.128906 489.832031 71.195312 489.988281 71.328125 C 490.144531 71.464844 490.222656 71.648438 490.222656 71.871094 C 490.222656 72.082031 490.152344 72.25 490.015625 72.382812 C 489.878906 72.519531 489.679688 72.601562 489.421875 72.625 L 489.421875 78.5 C 489.734375 78.5 489.96875 78.570312 490.125 78.710938 C 490.273438 78.851562 490.351562 79.035156 490.351562 79.253906 C 490.351562 79.476562 490.273438 79.65625 490.121094 79.792969 C 489.964844 79.933594 489.707031 80 489.351562 80 L 487.371094 80 C 487.011719 80 486.757812 79.933594 486.605469 79.792969 C 486.449219 79.65625 486.371094 79.472656 486.375 79.246094 C 486.371094 79.027344 486.449219 78.847656 486.605469 78.707031 C 486.757812 78.570312 487.011719 78.5 487.371094 78.5 L 487.921875 78.5 L 487.921875 74.023438 L 486.199219 77.890625 L 484.898438 77.890625 Z M 417.984375 67.511719 "/>
</svg>
